<mxfile host="Electron" agent="Mozilla/5.0 (Windows NT 10.0; Win64; x64) AppleWebKit/537.36 (KHTML, like Gecko) draw.io/26.0.4 Chrome/128.0.6613.186 Electron/32.2.5 Safari/537.36" version="26.0.4">
  <diagram name="Page-1" id="mxQVCHq5X-GFu3Dnnk5h">
    <mxGraphModel dx="238" dy="155" grid="1" gridSize="10" guides="1" tooltips="1" connect="1" arrows="1" fold="1" page="0" pageScale="1" pageWidth="850" pageHeight="1100" background="#ffffff" math="0" shadow="0">
      <root>
        <mxCell id="0" />
        <mxCell id="1" parent="0" />
        <mxCell id="_dP8tCiRlAQ-4006Mm7O-1" value="venues" style="shape=table;startSize=30;container=1;collapsible=0;childLayout=tableLayout;fixedRows=1;rowLines=0;fontStyle=1;align=center;resizeLast=1;html=1;swimlaneLine=1;rounded=1;shadow=0;columnLines=0;swimlaneHead=1;swimlaneBody=1;horizontal=1;left=1;right=1;connectable=1;allowArrows=1;cloneable=1;rotatable=1;pointerEvents=1;expand=1;swimlaneFillColor=default;arcSize=7;flipV=0;flipH=0;direction=east;fillStyle=solid;verticalAlign=middle;labelBackgroundColor=none;fontSize=15;fillColor=#f5f5f5;strokeColor=#666666;fontColor=#333333;" vertex="1" parent="1">
          <mxGeometry x="240" y="160" width="200" height="240" as="geometry" />
        </mxCell>
        <mxCell id="_dP8tCiRlAQ-4006Mm7O-2" value="" style="shape=tableRow;horizontal=0;startSize=0;swimlaneHead=0;swimlaneBody=0;fillColor=none;collapsible=0;dropTarget=0;points=[[0,0.5],[1,0.5]];portConstraint=eastwest;top=0;left=0;right=0;bottom=0;cloneable=1;rotatable=1;pointerEvents=1;expand=1;swimlaneFillColor=none;align=left;strokeColor=default;swimlaneLine=0;textShadow=0;labelBorderColor=none;labelBackgroundColor=none;verticalAlign=middle;fontColor=default;fontStyle=0" vertex="1" parent="_dP8tCiRlAQ-4006Mm7O-1">
          <mxGeometry y="30" width="200" height="30" as="geometry" />
        </mxCell>
        <mxCell id="_dP8tCiRlAQ-4006Mm7O-3" value="id" style="shape=partialRectangle;connectable=0;fillColor=none;top=0;left=0;bottom=0;right=0;align=left;spacingLeft=10;overflow=hidden;cloneable=1;rotatable=1;pointerEvents=1;expand=1;swimlaneFillColor=none;fontStyle=1;fontColor=light-dark(#333333, #ededed);html=1;strokeColor=light-dark(#333333, #ededed);swimlaneLine=0;textShadow=0;labelBorderColor=none;labelBackgroundColor=none;verticalAlign=middle;" vertex="1" parent="_dP8tCiRlAQ-4006Mm7O-2">
          <mxGeometry width="120" height="30" as="geometry">
            <mxRectangle width="120" height="30" as="alternateBounds" />
          </mxGeometry>
        </mxCell>
        <mxCell id="_dP8tCiRlAQ-4006Mm7O-4" value="UUID" style="shape=partialRectangle;connectable=0;fillColor=none;top=0;left=0;bottom=0;right=0;align=right;spacingLeft=0;overflow=hidden;html=1;cloneable=1;rotatable=1;pointerEvents=1;expand=1;swimlaneFillColor=none;fontStyle=2;fontColor=#808080;spacingRight=10;strokeColor=#808080;swimlaneLine=0;textShadow=0;labelBorderColor=none;labelBackgroundColor=none;verticalAlign=middle;" vertex="1" parent="_dP8tCiRlAQ-4006Mm7O-2">
          <mxGeometry x="120" width="80" height="30" as="geometry">
            <mxRectangle width="80" height="30" as="alternateBounds" />
          </mxGeometry>
        </mxCell>
        <mxCell id="_dP8tCiRlAQ-4006Mm7O-5" value="" style="shape=tableRow;horizontal=0;startSize=0;swimlaneHead=0;swimlaneBody=0;fillColor=none;collapsible=0;dropTarget=0;points=[[0,0.5],[1,0.5]];portConstraint=eastwest;top=0;left=0;right=0;bottom=0;cloneable=1;rotatable=1;pointerEvents=1;expand=1;swimlaneFillColor=none;align=left;swimlaneLine=0;textShadow=0;labelBorderColor=none;labelBackgroundColor=none;verticalAlign=middle;fontColor=default;fontStyle=0;strokeColor=default;" vertex="1" parent="_dP8tCiRlAQ-4006Mm7O-1">
          <mxGeometry y="60" width="200" height="30" as="geometry" />
        </mxCell>
        <mxCell id="_dP8tCiRlAQ-4006Mm7O-6" value="owner_id" style="shape=partialRectangle;connectable=0;fillColor=none;top=0;left=0;bottom=0;right=0;align=left;spacingLeft=10;overflow=hidden;html=1;cloneable=1;rotatable=1;pointerEvents=1;expand=1;swimlaneFillColor=none;fontStyle=0;fontColor=light-dark(#333333, #ededed);swimlaneLine=0;textShadow=0;labelBorderColor=none;labelBackgroundColor=none;verticalAlign=middle;strokeColor=light-dark(#333333, #ededed);" vertex="1" parent="_dP8tCiRlAQ-4006Mm7O-5">
          <mxGeometry width="120" height="30" as="geometry">
            <mxRectangle width="120" height="30" as="alternateBounds" />
          </mxGeometry>
        </mxCell>
        <mxCell id="_dP8tCiRlAQ-4006Mm7O-7" value="UUID" style="shape=partialRectangle;connectable=0;fillColor=none;top=0;left=0;bottom=0;right=0;align=right;spacingLeft=0;overflow=hidden;html=1;cloneable=1;rotatable=1;pointerEvents=1;expand=1;swimlaneFillColor=none;fontStyle=2;fontColor=#808080;spacingRight=10;strokeColor=#808080;swimlaneLine=0;textShadow=0;labelBorderColor=none;labelBackgroundColor=none;verticalAlign=middle;" vertex="1" parent="_dP8tCiRlAQ-4006Mm7O-5">
          <mxGeometry x="120" width="80" height="30" as="geometry">
            <mxRectangle width="80" height="30" as="alternateBounds" />
          </mxGeometry>
        </mxCell>
        <mxCell id="_dP8tCiRlAQ-4006Mm7O-20" style="shape=tableRow;horizontal=0;startSize=0;swimlaneHead=0;swimlaneBody=0;fillColor=none;collapsible=0;dropTarget=0;points=[[0,0.5],[1,0.5]];portConstraint=eastwest;top=0;left=0;right=0;bottom=0;cloneable=1;rotatable=1;pointerEvents=1;expand=1;swimlaneFillColor=none;align=left;swimlaneLine=0;textShadow=0;labelBorderColor=none;labelBackgroundColor=none;verticalAlign=middle;fontColor=default;fontStyle=0;strokeColor=default;" vertex="1" parent="_dP8tCiRlAQ-4006Mm7O-1">
          <mxGeometry y="90" width="200" height="30" as="geometry" />
        </mxCell>
        <mxCell id="_dP8tCiRlAQ-4006Mm7O-21" value="venue_status_id" style="shape=partialRectangle;connectable=0;fillColor=none;top=0;left=0;bottom=0;right=0;align=left;spacingLeft=10;overflow=hidden;html=1;cloneable=1;rotatable=1;pointerEvents=1;expand=1;swimlaneFillColor=none;fontStyle=0;fontColor=light-dark(#333333, #ededed);swimlaneLine=0;textShadow=0;labelBorderColor=none;labelBackgroundColor=none;verticalAlign=middle;strokeColor=light-dark(#333333, #ededed);" vertex="1" parent="_dP8tCiRlAQ-4006Mm7O-20">
          <mxGeometry width="120" height="30" as="geometry">
            <mxRectangle width="120" height="30" as="alternateBounds" />
          </mxGeometry>
        </mxCell>
        <mxCell id="_dP8tCiRlAQ-4006Mm7O-22" value="ENUM" style="shape=partialRectangle;connectable=0;fillColor=none;top=0;left=0;bottom=0;right=0;align=right;spacingLeft=6;overflow=hidden;html=1;cloneable=1;rotatable=1;pointerEvents=1;expand=1;swimlaneFillColor=none;fontStyle=2;fontColor=#808080;spacingRight=10;strokeColor=#808080;swimlaneLine=0;textShadow=0;labelBorderColor=none;labelBackgroundColor=none;verticalAlign=middle;" vertex="1" parent="_dP8tCiRlAQ-4006Mm7O-20">
          <mxGeometry x="120" width="80" height="30" as="geometry">
            <mxRectangle width="80" height="30" as="alternateBounds" />
          </mxGeometry>
        </mxCell>
        <mxCell id="_dP8tCiRlAQ-4006Mm7O-8" value="" style="shape=tableRow;horizontal=0;startSize=0;swimlaneHead=0;swimlaneBody=0;fillColor=none;collapsible=0;dropTarget=0;points=[[0,0.5],[1,0.5]];portConstraint=eastwest;top=0;left=0;right=0;bottom=0;cloneable=1;rotatable=1;pointerEvents=1;expand=1;swimlaneFillColor=none;align=left;swimlaneLine=0;textShadow=0;labelBorderColor=none;labelBackgroundColor=none;verticalAlign=middle;fontColor=default;fontStyle=0;strokeColor=default;" vertex="1" parent="_dP8tCiRlAQ-4006Mm7O-1">
          <mxGeometry y="120" width="200" height="30" as="geometry" />
        </mxCell>
        <mxCell id="_dP8tCiRlAQ-4006Mm7O-9" value="name" style="shape=partialRectangle;connectable=0;fillColor=none;top=0;left=0;bottom=0;right=0;align=left;spacingLeft=10;overflow=hidden;html=1;cloneable=1;rotatable=1;pointerEvents=1;expand=1;swimlaneFillColor=none;fontStyle=0;fontColor=light-dark(#333333, #ededed);swimlaneLine=0;textShadow=0;labelBorderColor=none;labelBackgroundColor=none;verticalAlign=middle;strokeColor=light-dark(#333333, #ededed);" vertex="1" parent="_dP8tCiRlAQ-4006Mm7O-8">
          <mxGeometry width="120" height="30" as="geometry">
            <mxRectangle width="120" height="30" as="alternateBounds" />
          </mxGeometry>
        </mxCell>
        <mxCell id="_dP8tCiRlAQ-4006Mm7O-10" value="Text" style="shape=partialRectangle;connectable=0;fillColor=none;top=0;left=0;bottom=0;right=0;align=right;spacingLeft=6;overflow=hidden;html=1;cloneable=1;rotatable=1;pointerEvents=1;expand=1;swimlaneFillColor=none;fontStyle=2;fontColor=#808080;spacingRight=10;strokeColor=#808080;swimlaneLine=0;textShadow=0;labelBorderColor=none;labelBackgroundColor=none;verticalAlign=middle;" vertex="1" parent="_dP8tCiRlAQ-4006Mm7O-8">
          <mxGeometry x="120" width="80" height="30" as="geometry">
            <mxRectangle width="80" height="30" as="alternateBounds" />
          </mxGeometry>
        </mxCell>
        <mxCell id="_dP8tCiRlAQ-4006Mm7O-11" style="shape=tableRow;horizontal=0;startSize=0;swimlaneHead=0;swimlaneBody=0;fillColor=none;collapsible=0;dropTarget=0;points=[[0,0.5],[1,0.5]];portConstraint=eastwest;top=0;left=0;right=0;bottom=0;cloneable=1;rotatable=1;pointerEvents=1;expand=1;swimlaneFillColor=none;align=left;swimlaneLine=0;textShadow=0;labelBorderColor=none;labelBackgroundColor=none;verticalAlign=middle;fontColor=default;fontStyle=0;strokeColor=default;" vertex="1" parent="_dP8tCiRlAQ-4006Mm7O-1">
          <mxGeometry y="150" width="200" height="30" as="geometry" />
        </mxCell>
        <mxCell id="_dP8tCiRlAQ-4006Mm7O-12" value="description" style="shape=partialRectangle;connectable=0;fillColor=none;top=0;left=0;bottom=0;right=0;align=left;spacingLeft=10;overflow=hidden;html=1;cloneable=1;rotatable=1;pointerEvents=1;expand=1;swimlaneFillColor=none;fontStyle=0;fontColor=light-dark(#333333, #ededed);swimlaneLine=0;textShadow=0;labelBorderColor=none;labelBackgroundColor=none;verticalAlign=middle;strokeColor=light-dark(#333333, #ededed);" vertex="1" parent="_dP8tCiRlAQ-4006Mm7O-11">
          <mxGeometry width="120" height="30" as="geometry">
            <mxRectangle width="120" height="30" as="alternateBounds" />
          </mxGeometry>
        </mxCell>
        <mxCell id="_dP8tCiRlAQ-4006Mm7O-13" value="Text" style="shape=partialRectangle;connectable=0;fillColor=none;top=0;left=0;bottom=0;right=0;align=right;spacingLeft=6;overflow=hidden;html=1;cloneable=1;rotatable=1;pointerEvents=1;expand=1;swimlaneFillColor=none;fontStyle=2;fontColor=#808080;spacingRight=10;strokeColor=#808080;swimlaneLine=0;textShadow=0;labelBorderColor=none;labelBackgroundColor=none;verticalAlign=middle;" vertex="1" parent="_dP8tCiRlAQ-4006Mm7O-11">
          <mxGeometry x="120" width="80" height="30" as="geometry">
            <mxRectangle width="80" height="30" as="alternateBounds" />
          </mxGeometry>
        </mxCell>
        <mxCell id="_dP8tCiRlAQ-4006Mm7O-14" style="shape=tableRow;horizontal=0;startSize=0;swimlaneHead=0;swimlaneBody=0;fillColor=none;collapsible=0;dropTarget=0;points=[[0,0.5],[1,0.5]];portConstraint=eastwest;top=0;left=0;right=0;bottom=0;cloneable=1;rotatable=1;pointerEvents=1;expand=1;swimlaneFillColor=none;align=left;swimlaneLine=0;textShadow=0;labelBorderColor=none;labelBackgroundColor=none;verticalAlign=middle;fontColor=default;fontStyle=0;strokeColor=default;" vertex="1" parent="_dP8tCiRlAQ-4006Mm7O-1">
          <mxGeometry y="180" width="200" height="30" as="geometry" />
        </mxCell>
        <mxCell id="_dP8tCiRlAQ-4006Mm7O-15" value="max_capacity" style="shape=partialRectangle;connectable=0;fillColor=none;top=0;left=0;bottom=0;right=0;align=left;spacingLeft=10;overflow=hidden;html=1;cloneable=1;rotatable=1;pointerEvents=1;expand=1;swimlaneFillColor=none;fontStyle=0;fontColor=light-dark(#333333, #ededed);swimlaneLine=0;textShadow=0;labelBorderColor=none;labelBackgroundColor=none;verticalAlign=middle;strokeColor=light-dark(#333333, #ededed);" vertex="1" parent="_dP8tCiRlAQ-4006Mm7O-14">
          <mxGeometry width="120" height="30" as="geometry">
            <mxRectangle width="120" height="30" as="alternateBounds" />
          </mxGeometry>
        </mxCell>
        <mxCell id="_dP8tCiRlAQ-4006Mm7O-16" value="Int" style="shape=partialRectangle;connectable=0;fillColor=none;top=0;left=0;bottom=0;right=0;align=right;spacingLeft=6;overflow=hidden;html=1;cloneable=1;rotatable=1;pointerEvents=1;expand=1;swimlaneFillColor=none;fontStyle=2;fontColor=#808080;spacingRight=10;strokeColor=#808080;swimlaneLine=0;textShadow=0;labelBorderColor=none;labelBackgroundColor=none;verticalAlign=middle;" vertex="1" parent="_dP8tCiRlAQ-4006Mm7O-14">
          <mxGeometry x="120" width="80" height="30" as="geometry">
            <mxRectangle width="80" height="30" as="alternateBounds" />
          </mxGeometry>
        </mxCell>
        <mxCell id="_dP8tCiRlAQ-4006Mm7O-17" style="shape=tableRow;horizontal=0;startSize=0;swimlaneHead=0;swimlaneBody=0;fillColor=none;collapsible=0;dropTarget=0;points=[[0,0.5],[1,0.5]];portConstraint=eastwest;top=0;left=0;right=0;bottom=0;cloneable=1;rotatable=1;pointerEvents=1;expand=1;swimlaneFillColor=none;align=left;swimlaneLine=0;textShadow=0;labelBorderColor=none;labelBackgroundColor=none;verticalAlign=middle;fontColor=default;fontStyle=0;strokeColor=default;" vertex="1" parent="_dP8tCiRlAQ-4006Mm7O-1">
          <mxGeometry y="210" width="200" height="30" as="geometry" />
        </mxCell>
        <mxCell id="_dP8tCiRlAQ-4006Mm7O-18" value="booking_timeline" style="shape=partialRectangle;connectable=0;fillColor=none;top=0;left=0;bottom=0;right=0;align=left;spacingLeft=10;overflow=hidden;html=1;cloneable=1;rotatable=1;pointerEvents=1;expand=1;swimlaneFillColor=none;fontStyle=0;fontColor=light-dark(#333333, #ededed);swimlaneLine=0;textShadow=0;labelBorderColor=none;labelBackgroundColor=none;verticalAlign=middle;strokeColor=light-dark(#333333, #ededed);" vertex="1" parent="_dP8tCiRlAQ-4006Mm7O-17">
          <mxGeometry width="120" height="30" as="geometry">
            <mxRectangle width="120" height="30" as="alternateBounds" />
          </mxGeometry>
        </mxCell>
        <mxCell id="_dP8tCiRlAQ-4006Mm7O-19" value="Int" style="shape=partialRectangle;connectable=0;fillColor=none;top=0;left=0;bottom=0;right=0;align=right;spacingLeft=6;overflow=hidden;html=1;cloneable=1;rotatable=1;pointerEvents=1;expand=1;swimlaneFillColor=none;fontStyle=2;fontColor=#808080;spacingRight=10;strokeColor=#808080;swimlaneLine=0;textShadow=0;labelBorderColor=none;labelBackgroundColor=none;verticalAlign=middle;" vertex="1" parent="_dP8tCiRlAQ-4006Mm7O-17">
          <mxGeometry x="120" width="80" height="30" as="geometry">
            <mxRectangle width="80" height="30" as="alternateBounds" />
          </mxGeometry>
        </mxCell>
        <mxCell id="_dP8tCiRlAQ-4006Mm7O-25" value="zones" style="shape=table;startSize=30;container=1;collapsible=0;childLayout=tableLayout;fixedRows=1;rowLines=0;fontStyle=1;align=center;resizeLast=1;html=1;swimlaneLine=1;rounded=1;shadow=0;columnLines=0;swimlaneHead=1;swimlaneBody=1;horizontal=1;left=1;right=1;connectable=1;allowArrows=1;cloneable=1;rotatable=1;pointerEvents=1;expand=1;swimlaneFillColor=default;arcSize=7;flipV=0;flipH=0;direction=east;fillStyle=solid;verticalAlign=middle;labelBackgroundColor=none;fontSize=15;fillColor=#f5f5f5;strokeColor=#666666;fontColor=#333333;" vertex="1" parent="1">
          <mxGeometry x="520" y="160" width="200" height="450" as="geometry" />
        </mxCell>
        <mxCell id="_dP8tCiRlAQ-4006Mm7O-26" value="" style="shape=tableRow;horizontal=0;startSize=0;swimlaneHead=0;swimlaneBody=0;fillColor=none;collapsible=0;dropTarget=0;points=[[0,0.5],[1,0.5]];portConstraint=eastwest;top=0;left=0;right=0;bottom=0;cloneable=1;rotatable=1;pointerEvents=1;expand=1;swimlaneFillColor=none;align=left;strokeColor=default;swimlaneLine=0;textShadow=0;labelBorderColor=none;labelBackgroundColor=none;verticalAlign=middle;fontColor=default;fontStyle=0" vertex="1" parent="_dP8tCiRlAQ-4006Mm7O-25">
          <mxGeometry y="30" width="200" height="30" as="geometry" />
        </mxCell>
        <mxCell id="_dP8tCiRlAQ-4006Mm7O-27" value="id" style="shape=partialRectangle;connectable=0;fillColor=none;top=0;left=0;bottom=0;right=0;align=left;spacingLeft=10;overflow=hidden;cloneable=1;rotatable=1;pointerEvents=1;expand=1;swimlaneFillColor=none;fontStyle=1;fontColor=light-dark(#333333, #ededed);html=1;strokeColor=light-dark(#333333, #ededed);swimlaneLine=0;textShadow=0;labelBorderColor=none;labelBackgroundColor=none;verticalAlign=middle;" vertex="1" parent="_dP8tCiRlAQ-4006Mm7O-26">
          <mxGeometry width="133.51724137931024" height="30" as="geometry">
            <mxRectangle width="133.51724137931024" height="30" as="alternateBounds" />
          </mxGeometry>
        </mxCell>
        <mxCell id="_dP8tCiRlAQ-4006Mm7O-28" value="UUID" style="shape=partialRectangle;connectable=0;fillColor=none;top=0;left=0;bottom=0;right=0;align=right;spacingLeft=0;overflow=hidden;html=1;cloneable=1;rotatable=1;pointerEvents=1;expand=1;swimlaneFillColor=none;fontStyle=2;fontColor=#808080;spacingRight=10;strokeColor=#808080;swimlaneLine=0;textShadow=0;labelBorderColor=none;labelBackgroundColor=none;verticalAlign=middle;" vertex="1" parent="_dP8tCiRlAQ-4006Mm7O-26">
          <mxGeometry x="133.51724137931024" width="66.48275862068976" height="30" as="geometry">
            <mxRectangle width="66.48275862068976" height="30" as="alternateBounds" />
          </mxGeometry>
        </mxCell>
        <mxCell id="_dP8tCiRlAQ-4006Mm7O-29" value="" style="shape=tableRow;horizontal=0;startSize=0;swimlaneHead=0;swimlaneBody=0;fillColor=none;collapsible=0;dropTarget=0;points=[[0,0.5],[1,0.5]];portConstraint=eastwest;top=0;left=0;right=0;bottom=0;cloneable=1;rotatable=1;pointerEvents=1;expand=1;swimlaneFillColor=none;align=left;swimlaneLine=0;textShadow=0;labelBorderColor=none;labelBackgroundColor=none;verticalAlign=middle;fontColor=default;fontStyle=0;strokeColor=default;" vertex="1" parent="_dP8tCiRlAQ-4006Mm7O-25">
          <mxGeometry y="60" width="200" height="30" as="geometry" />
        </mxCell>
        <mxCell id="_dP8tCiRlAQ-4006Mm7O-30" value="venue_id" style="shape=partialRectangle;connectable=0;fillColor=none;top=0;left=0;bottom=0;right=0;align=left;spacingLeft=10;overflow=hidden;html=1;cloneable=1;rotatable=1;pointerEvents=1;expand=1;swimlaneFillColor=none;fontStyle=0;fontColor=light-dark(#333333, #ededed);swimlaneLine=0;textShadow=0;labelBorderColor=none;labelBackgroundColor=none;verticalAlign=middle;strokeColor=light-dark(#333333, #ededed);" vertex="1" parent="_dP8tCiRlAQ-4006Mm7O-29">
          <mxGeometry width="133.51724137931024" height="30" as="geometry">
            <mxRectangle width="133.51724137931024" height="30" as="alternateBounds" />
          </mxGeometry>
        </mxCell>
        <mxCell id="_dP8tCiRlAQ-4006Mm7O-31" value="UUID" style="shape=partialRectangle;connectable=0;fillColor=none;top=0;left=0;bottom=0;right=0;align=right;spacingLeft=0;overflow=hidden;html=1;cloneable=1;rotatable=1;pointerEvents=1;expand=1;swimlaneFillColor=none;fontStyle=2;fontColor=#808080;spacingRight=10;strokeColor=#808080;swimlaneLine=0;textShadow=0;labelBorderColor=none;labelBackgroundColor=none;verticalAlign=middle;" vertex="1" parent="_dP8tCiRlAQ-4006Mm7O-29">
          <mxGeometry x="133.51724137931024" width="66.48275862068976" height="30" as="geometry">
            <mxRectangle width="66.48275862068976" height="30" as="alternateBounds" />
          </mxGeometry>
        </mxCell>
        <mxCell id="_dP8tCiRlAQ-4006Mm7O-41" style="shape=tableRow;horizontal=0;startSize=0;swimlaneHead=0;swimlaneBody=0;fillColor=none;collapsible=0;dropTarget=0;points=[[0,0.5],[1,0.5]];portConstraint=eastwest;top=0;left=0;right=0;bottom=0;cloneable=1;rotatable=1;pointerEvents=1;expand=1;swimlaneFillColor=none;align=left;swimlaneLine=0;textShadow=0;labelBorderColor=none;labelBackgroundColor=none;verticalAlign=middle;fontColor=default;fontStyle=0;strokeColor=default;" vertex="1" parent="_dP8tCiRlAQ-4006Mm7O-25">
          <mxGeometry y="90" width="200" height="30" as="geometry" />
        </mxCell>
        <mxCell id="_dP8tCiRlAQ-4006Mm7O-42" value="zone_status_id" style="shape=partialRectangle;connectable=0;fillColor=none;top=0;left=0;bottom=0;right=0;align=left;spacingLeft=10;overflow=hidden;html=1;cloneable=1;rotatable=1;pointerEvents=1;expand=1;swimlaneFillColor=none;fontStyle=0;fontColor=light-dark(#333333, #ededed);swimlaneLine=0;textShadow=0;labelBorderColor=none;labelBackgroundColor=none;verticalAlign=middle;strokeColor=light-dark(#333333, #ededed);" vertex="1" parent="_dP8tCiRlAQ-4006Mm7O-41">
          <mxGeometry width="133.51724137931024" height="30" as="geometry">
            <mxRectangle width="133.51724137931024" height="30" as="alternateBounds" />
          </mxGeometry>
        </mxCell>
        <mxCell id="_dP8tCiRlAQ-4006Mm7O-43" value="UUID" style="shape=partialRectangle;connectable=0;fillColor=none;top=0;left=0;bottom=0;right=0;align=right;spacingLeft=6;overflow=hidden;html=1;cloneable=1;rotatable=1;pointerEvents=1;expand=1;swimlaneFillColor=none;fontStyle=2;fontColor=#808080;spacingRight=10;strokeColor=#808080;swimlaneLine=0;textShadow=0;labelBorderColor=none;labelBackgroundColor=none;verticalAlign=middle;" vertex="1" parent="_dP8tCiRlAQ-4006Mm7O-41">
          <mxGeometry x="133.51724137931024" width="66.48275862068976" height="30" as="geometry">
            <mxRectangle width="66.48275862068976" height="30" as="alternateBounds" />
          </mxGeometry>
        </mxCell>
        <mxCell id="_dP8tCiRlAQ-4006Mm7O-32" style="shape=tableRow;horizontal=0;startSize=0;swimlaneHead=0;swimlaneBody=0;fillColor=none;collapsible=0;dropTarget=0;points=[[0,0.5],[1,0.5]];portConstraint=eastwest;top=0;left=0;right=0;bottom=0;cloneable=1;rotatable=1;pointerEvents=1;expand=1;swimlaneFillColor=none;align=left;swimlaneLine=0;textShadow=0;labelBorderColor=none;labelBackgroundColor=none;verticalAlign=middle;fontColor=default;fontStyle=0;strokeColor=default;" vertex="1" parent="_dP8tCiRlAQ-4006Mm7O-25">
          <mxGeometry y="120" width="200" height="30" as="geometry" />
        </mxCell>
        <mxCell id="_dP8tCiRlAQ-4006Mm7O-33" value="name" style="shape=partialRectangle;connectable=0;fillColor=none;top=0;left=0;bottom=0;right=0;align=left;spacingLeft=10;overflow=hidden;html=1;cloneable=1;rotatable=1;pointerEvents=1;expand=1;swimlaneFillColor=none;fontStyle=0;fontColor=light-dark(#333333, #ededed);swimlaneLine=0;textShadow=0;labelBorderColor=none;labelBackgroundColor=none;verticalAlign=middle;strokeColor=light-dark(#333333, #ededed);" vertex="1" parent="_dP8tCiRlAQ-4006Mm7O-32">
          <mxGeometry width="133.51724137931024" height="30" as="geometry">
            <mxRectangle width="133.51724137931024" height="30" as="alternateBounds" />
          </mxGeometry>
        </mxCell>
        <mxCell id="_dP8tCiRlAQ-4006Mm7O-34" value="Text" style="shape=partialRectangle;connectable=0;fillColor=none;top=0;left=0;bottom=0;right=0;align=right;spacingLeft=6;overflow=hidden;html=1;cloneable=1;rotatable=1;pointerEvents=1;expand=1;swimlaneFillColor=none;fontStyle=2;fontColor=#808080;spacingRight=10;strokeColor=#808080;swimlaneLine=0;textShadow=0;labelBorderColor=none;labelBackgroundColor=none;verticalAlign=middle;" vertex="1" parent="_dP8tCiRlAQ-4006Mm7O-32">
          <mxGeometry x="133.51724137931024" width="66.48275862068976" height="30" as="geometry">
            <mxRectangle width="66.48275862068976" height="30" as="alternateBounds" />
          </mxGeometry>
        </mxCell>
        <mxCell id="_dP8tCiRlAQ-4006Mm7O-35" value="" style="shape=tableRow;horizontal=0;startSize=0;swimlaneHead=0;swimlaneBody=0;fillColor=none;collapsible=0;dropTarget=0;points=[[0,0.5],[1,0.5]];portConstraint=eastwest;top=0;left=0;right=0;bottom=0;cloneable=1;rotatable=1;pointerEvents=1;expand=1;swimlaneFillColor=none;align=left;swimlaneLine=0;textShadow=0;labelBorderColor=none;labelBackgroundColor=none;verticalAlign=middle;fontColor=default;fontStyle=0;strokeColor=default;" vertex="1" parent="_dP8tCiRlAQ-4006Mm7O-25">
          <mxGeometry y="150" width="200" height="30" as="geometry" />
        </mxCell>
        <mxCell id="_dP8tCiRlAQ-4006Mm7O-36" value="description" style="shape=partialRectangle;connectable=0;fillColor=none;top=0;left=0;bottom=0;right=0;align=left;spacingLeft=10;overflow=hidden;html=1;cloneable=1;rotatable=1;pointerEvents=1;expand=1;swimlaneFillColor=none;fontStyle=0;fontColor=light-dark(#333333, #ededed);swimlaneLine=0;textShadow=0;labelBorderColor=none;labelBackgroundColor=none;verticalAlign=middle;strokeColor=light-dark(#333333, #ededed);" vertex="1" parent="_dP8tCiRlAQ-4006Mm7O-35">
          <mxGeometry width="133.51724137931024" height="30" as="geometry">
            <mxRectangle width="133.51724137931024" height="30" as="alternateBounds" />
          </mxGeometry>
        </mxCell>
        <mxCell id="_dP8tCiRlAQ-4006Mm7O-37" value="Text" style="shape=partialRectangle;connectable=0;fillColor=none;top=0;left=0;bottom=0;right=0;align=right;spacingLeft=6;overflow=hidden;html=1;cloneable=1;rotatable=1;pointerEvents=1;expand=1;swimlaneFillColor=none;fontStyle=2;fontColor=#808080;spacingRight=10;strokeColor=#808080;swimlaneLine=0;textShadow=0;labelBorderColor=none;labelBackgroundColor=none;verticalAlign=middle;" vertex="1" parent="_dP8tCiRlAQ-4006Mm7O-35">
          <mxGeometry x="133.51724137931024" width="66.48275862068976" height="30" as="geometry">
            <mxRectangle width="66.48275862068976" height="30" as="alternateBounds" />
          </mxGeometry>
        </mxCell>
        <mxCell id="_dP8tCiRlAQ-4006Mm7O-38" style="shape=tableRow;horizontal=0;startSize=0;swimlaneHead=0;swimlaneBody=0;fillColor=none;collapsible=0;dropTarget=0;points=[[0,0.5],[1,0.5]];portConstraint=eastwest;top=0;left=0;right=0;bottom=0;cloneable=1;rotatable=1;pointerEvents=1;expand=1;swimlaneFillColor=none;align=left;swimlaneLine=0;textShadow=0;labelBorderColor=none;labelBackgroundColor=none;verticalAlign=middle;fontColor=default;fontStyle=0;strokeColor=default;" vertex="1" parent="_dP8tCiRlAQ-4006Mm7O-25">
          <mxGeometry y="180" width="200" height="30" as="geometry" />
        </mxCell>
        <mxCell id="_dP8tCiRlAQ-4006Mm7O-39" value="capacity" style="shape=partialRectangle;connectable=0;fillColor=none;top=0;left=0;bottom=0;right=0;align=left;spacingLeft=10;overflow=hidden;html=1;cloneable=1;rotatable=1;pointerEvents=1;expand=1;swimlaneFillColor=none;fontStyle=0;fontColor=light-dark(#333333, #ededed);swimlaneLine=0;textShadow=0;labelBorderColor=none;labelBackgroundColor=none;verticalAlign=middle;strokeColor=light-dark(#333333, #ededed);" vertex="1" parent="_dP8tCiRlAQ-4006Mm7O-38">
          <mxGeometry width="133.51724137931024" height="30" as="geometry">
            <mxRectangle width="133.51724137931024" height="30" as="alternateBounds" />
          </mxGeometry>
        </mxCell>
        <mxCell id="_dP8tCiRlAQ-4006Mm7O-40" value="Int" style="shape=partialRectangle;connectable=0;fillColor=none;top=0;left=0;bottom=0;right=0;align=right;spacingLeft=6;overflow=hidden;html=1;cloneable=1;rotatable=1;pointerEvents=1;expand=1;swimlaneFillColor=none;fontStyle=2;fontColor=#808080;spacingRight=10;strokeColor=#808080;swimlaneLine=0;textShadow=0;labelBorderColor=none;labelBackgroundColor=none;verticalAlign=middle;" vertex="1" parent="_dP8tCiRlAQ-4006Mm7O-38">
          <mxGeometry x="133.51724137931024" width="66.48275862068976" height="30" as="geometry">
            <mxRectangle width="66.48275862068976" height="30" as="alternateBounds" />
          </mxGeometry>
        </mxCell>
        <mxCell id="_dP8tCiRlAQ-4006Mm7O-44" style="shape=tableRow;horizontal=0;startSize=0;swimlaneHead=0;swimlaneBody=0;fillColor=none;collapsible=0;dropTarget=0;points=[[0,0.5],[1,0.5]];portConstraint=eastwest;top=0;left=0;right=0;bottom=0;cloneable=1;rotatable=1;pointerEvents=1;expand=1;swimlaneFillColor=none;align=left;swimlaneLine=0;textShadow=0;labelBorderColor=none;labelBackgroundColor=none;verticalAlign=middle;fontColor=default;fontStyle=0;strokeColor=default;" vertex="1" parent="_dP8tCiRlAQ-4006Mm7O-25">
          <mxGeometry y="210" width="200" height="30" as="geometry" />
        </mxCell>
        <mxCell id="_dP8tCiRlAQ-4006Mm7O-45" value="length" style="shape=partialRectangle;connectable=0;fillColor=none;top=0;left=0;bottom=0;right=0;align=left;spacingLeft=10;overflow=hidden;html=1;cloneable=1;rotatable=1;pointerEvents=1;expand=1;swimlaneFillColor=none;fontStyle=0;fontColor=light-dark(#333333, #ededed);swimlaneLine=0;textShadow=0;labelBorderColor=none;labelBackgroundColor=none;verticalAlign=middle;strokeColor=light-dark(#333333, #ededed);" vertex="1" parent="_dP8tCiRlAQ-4006Mm7O-44">
          <mxGeometry width="133.51724137931024" height="30" as="geometry">
            <mxRectangle width="133.51724137931024" height="30" as="alternateBounds" />
          </mxGeometry>
        </mxCell>
        <mxCell id="_dP8tCiRlAQ-4006Mm7O-46" value="Decimal" style="shape=partialRectangle;connectable=0;fillColor=none;top=0;left=0;bottom=0;right=0;align=right;spacingLeft=6;overflow=hidden;html=1;cloneable=1;rotatable=1;pointerEvents=1;expand=1;swimlaneFillColor=none;fontStyle=2;fontColor=#808080;spacingRight=10;strokeColor=#808080;swimlaneLine=0;textShadow=0;labelBorderColor=none;labelBackgroundColor=none;verticalAlign=middle;" vertex="1" parent="_dP8tCiRlAQ-4006Mm7O-44">
          <mxGeometry x="133.51724137931024" width="66.48275862068976" height="30" as="geometry">
            <mxRectangle width="66.48275862068976" height="30" as="alternateBounds" />
          </mxGeometry>
        </mxCell>
        <mxCell id="_dP8tCiRlAQ-4006Mm7O-73" style="shape=tableRow;horizontal=0;startSize=0;swimlaneHead=0;swimlaneBody=0;fillColor=none;collapsible=0;dropTarget=0;points=[[0,0.5],[1,0.5]];portConstraint=eastwest;top=0;left=0;right=0;bottom=0;cloneable=1;rotatable=1;pointerEvents=1;expand=1;swimlaneFillColor=none;align=left;swimlaneLine=0;textShadow=0;labelBorderColor=none;labelBackgroundColor=none;verticalAlign=middle;fontColor=default;fontStyle=0;strokeColor=default;" vertex="1" parent="_dP8tCiRlAQ-4006Mm7O-25">
          <mxGeometry y="240" width="200" height="30" as="geometry" />
        </mxCell>
        <mxCell id="_dP8tCiRlAQ-4006Mm7O-74" value="width" style="shape=partialRectangle;connectable=0;fillColor=none;top=0;left=0;bottom=0;right=0;align=left;spacingLeft=10;overflow=hidden;html=1;cloneable=1;rotatable=1;pointerEvents=1;expand=1;swimlaneFillColor=none;fontStyle=0;fontColor=light-dark(#333333, #ededed);swimlaneLine=0;textShadow=0;labelBorderColor=none;labelBackgroundColor=none;verticalAlign=middle;strokeColor=light-dark(#333333, #ededed);" vertex="1" parent="_dP8tCiRlAQ-4006Mm7O-73">
          <mxGeometry width="133.51724137931024" height="30" as="geometry">
            <mxRectangle width="133.51724137931024" height="30" as="alternateBounds" />
          </mxGeometry>
        </mxCell>
        <mxCell id="_dP8tCiRlAQ-4006Mm7O-75" value="Decimal" style="shape=partialRectangle;connectable=0;fillColor=none;top=0;left=0;bottom=0;right=0;align=right;spacingLeft=6;overflow=hidden;html=1;cloneable=1;rotatable=1;pointerEvents=1;expand=1;swimlaneFillColor=none;fontStyle=2;fontColor=#808080;spacingRight=10;strokeColor=#808080;swimlaneLine=0;textShadow=0;labelBorderColor=none;labelBackgroundColor=none;verticalAlign=middle;" vertex="1" parent="_dP8tCiRlAQ-4006Mm7O-73">
          <mxGeometry x="133.51724137931024" width="66.48275862068976" height="30" as="geometry">
            <mxRectangle width="66.48275862068976" height="30" as="alternateBounds" />
          </mxGeometry>
        </mxCell>
        <mxCell id="_dP8tCiRlAQ-4006Mm7O-76" style="shape=tableRow;horizontal=0;startSize=0;swimlaneHead=0;swimlaneBody=0;fillColor=none;collapsible=0;dropTarget=0;points=[[0,0.5],[1,0.5]];portConstraint=eastwest;top=0;left=0;right=0;bottom=0;cloneable=1;rotatable=1;pointerEvents=1;expand=1;swimlaneFillColor=none;align=left;swimlaneLine=0;textShadow=0;labelBorderColor=none;labelBackgroundColor=none;verticalAlign=middle;fontColor=default;fontStyle=0;strokeColor=default;" vertex="1" parent="_dP8tCiRlAQ-4006Mm7O-25">
          <mxGeometry y="270" width="200" height="30" as="geometry" />
        </mxCell>
        <mxCell id="_dP8tCiRlAQ-4006Mm7O-77" value="height" style="shape=partialRectangle;connectable=0;fillColor=none;top=0;left=0;bottom=0;right=0;align=left;spacingLeft=10;overflow=hidden;html=1;cloneable=1;rotatable=1;pointerEvents=1;expand=1;swimlaneFillColor=none;fontStyle=0;fontColor=light-dark(#333333, #ededed);swimlaneLine=0;textShadow=0;labelBorderColor=none;labelBackgroundColor=none;verticalAlign=middle;strokeColor=light-dark(#333333, #ededed);" vertex="1" parent="_dP8tCiRlAQ-4006Mm7O-76">
          <mxGeometry width="133.51724137931024" height="30" as="geometry">
            <mxRectangle width="133.51724137931024" height="30" as="alternateBounds" />
          </mxGeometry>
        </mxCell>
        <mxCell id="_dP8tCiRlAQ-4006Mm7O-78" value="Decimal" style="shape=partialRectangle;connectable=0;fillColor=none;top=0;left=0;bottom=0;right=0;align=right;spacingLeft=6;overflow=hidden;html=1;cloneable=1;rotatable=1;pointerEvents=1;expand=1;swimlaneFillColor=none;fontStyle=2;fontColor=#808080;spacingRight=10;strokeColor=#808080;swimlaneLine=0;textShadow=0;labelBorderColor=none;labelBackgroundColor=none;verticalAlign=middle;" vertex="1" parent="_dP8tCiRlAQ-4006Mm7O-76">
          <mxGeometry x="133.51724137931024" width="66.48275862068976" height="30" as="geometry">
            <mxRectangle width="66.48275862068976" height="30" as="alternateBounds" />
          </mxGeometry>
        </mxCell>
        <mxCell id="_dP8tCiRlAQ-4006Mm7O-70" style="shape=tableRow;horizontal=0;startSize=0;swimlaneHead=0;swimlaneBody=0;fillColor=none;collapsible=0;dropTarget=0;points=[[0,0.5],[1,0.5]];portConstraint=eastwest;top=0;left=0;right=0;bottom=0;cloneable=1;rotatable=1;pointerEvents=1;expand=1;swimlaneFillColor=none;align=left;swimlaneLine=0;textShadow=0;labelBorderColor=none;labelBackgroundColor=none;verticalAlign=middle;fontColor=default;fontStyle=0;strokeColor=default;" vertex="1" parent="_dP8tCiRlAQ-4006Mm7O-25">
          <mxGeometry y="300" width="200" height="30" as="geometry" />
        </mxCell>
        <mxCell id="_dP8tCiRlAQ-4006Mm7O-71" value="area" style="shape=partialRectangle;connectable=0;fillColor=none;top=0;left=0;bottom=0;right=0;align=left;spacingLeft=10;overflow=hidden;html=1;cloneable=1;rotatable=1;pointerEvents=1;expand=1;swimlaneFillColor=none;fontStyle=0;fontColor=light-dark(#333333, #ededed);swimlaneLine=0;textShadow=0;labelBorderColor=none;labelBackgroundColor=none;verticalAlign=middle;strokeColor=light-dark(#333333, #ededed);" vertex="1" parent="_dP8tCiRlAQ-4006Mm7O-70">
          <mxGeometry width="133.51724137931024" height="30" as="geometry">
            <mxRectangle width="133.51724137931024" height="30" as="alternateBounds" />
          </mxGeometry>
        </mxCell>
        <mxCell id="_dP8tCiRlAQ-4006Mm7O-72" value="Decimal" style="shape=partialRectangle;connectable=0;fillColor=none;top=0;left=0;bottom=0;right=0;align=right;spacingLeft=6;overflow=hidden;html=1;cloneable=1;rotatable=1;pointerEvents=1;expand=1;swimlaneFillColor=none;fontStyle=2;fontColor=#808080;spacingRight=10;strokeColor=#808080;swimlaneLine=0;textShadow=0;labelBorderColor=none;labelBackgroundColor=none;verticalAlign=middle;" vertex="1" parent="_dP8tCiRlAQ-4006Mm7O-70">
          <mxGeometry x="133.51724137931024" width="66.48275862068976" height="30" as="geometry">
            <mxRectangle width="66.48275862068976" height="30" as="alternateBounds" />
          </mxGeometry>
        </mxCell>
        <mxCell id="_dP8tCiRlAQ-4006Mm7O-85" style="shape=tableRow;horizontal=0;startSize=0;swimlaneHead=0;swimlaneBody=0;fillColor=none;collapsible=0;dropTarget=0;points=[[0,0.5],[1,0.5]];portConstraint=eastwest;top=0;left=0;right=0;bottom=0;cloneable=1;rotatable=1;pointerEvents=1;expand=1;swimlaneFillColor=none;align=left;swimlaneLine=0;textShadow=0;labelBorderColor=none;labelBackgroundColor=none;verticalAlign=middle;fontColor=default;fontStyle=0;strokeColor=default;" vertex="1" parent="_dP8tCiRlAQ-4006Mm7O-25">
          <mxGeometry y="330" width="200" height="30" as="geometry" />
        </mxCell>
        <mxCell id="_dP8tCiRlAQ-4006Mm7O-86" value="hourly_fee" style="shape=partialRectangle;connectable=0;fillColor=none;top=0;left=0;bottom=0;right=0;align=left;spacingLeft=10;overflow=hidden;html=1;cloneable=1;rotatable=1;pointerEvents=1;expand=1;swimlaneFillColor=none;fontStyle=0;fontColor=light-dark(#333333, #ededed);swimlaneLine=0;textShadow=0;labelBorderColor=none;labelBackgroundColor=none;verticalAlign=middle;strokeColor=light-dark(#333333, #ededed);" vertex="1" parent="_dP8tCiRlAQ-4006Mm7O-85">
          <mxGeometry width="133.51724137931024" height="30" as="geometry">
            <mxRectangle width="133.51724137931024" height="30" as="alternateBounds" />
          </mxGeometry>
        </mxCell>
        <mxCell id="_dP8tCiRlAQ-4006Mm7O-87" value="Decimal" style="shape=partialRectangle;connectable=0;fillColor=none;top=0;left=0;bottom=0;right=0;align=right;spacingLeft=6;overflow=hidden;html=1;cloneable=1;rotatable=1;pointerEvents=1;expand=1;swimlaneFillColor=none;fontStyle=2;fontColor=#808080;spacingRight=10;strokeColor=#808080;swimlaneLine=0;textShadow=0;labelBorderColor=none;labelBackgroundColor=none;verticalAlign=middle;" vertex="1" parent="_dP8tCiRlAQ-4006Mm7O-85">
          <mxGeometry x="133.51724137931024" width="66.48275862068976" height="30" as="geometry">
            <mxRectangle width="66.48275862068976" height="30" as="alternateBounds" />
          </mxGeometry>
        </mxCell>
        <mxCell id="_dP8tCiRlAQ-4006Mm7O-82" style="shape=tableRow;horizontal=0;startSize=0;swimlaneHead=0;swimlaneBody=0;fillColor=none;collapsible=0;dropTarget=0;points=[[0,0.5],[1,0.5]];portConstraint=eastwest;top=0;left=0;right=0;bottom=0;cloneable=1;rotatable=1;pointerEvents=1;expand=1;swimlaneFillColor=none;align=left;swimlaneLine=0;textShadow=0;labelBorderColor=none;labelBackgroundColor=none;verticalAlign=middle;fontColor=default;fontStyle=0;strokeColor=default;" vertex="1" parent="_dP8tCiRlAQ-4006Mm7O-25">
          <mxGeometry y="360" width="200" height="30" as="geometry" />
        </mxCell>
        <mxCell id="_dP8tCiRlAQ-4006Mm7O-83" value="excess_dee" style="shape=partialRectangle;connectable=0;fillColor=none;top=0;left=0;bottom=0;right=0;align=left;spacingLeft=10;overflow=hidden;html=1;cloneable=1;rotatable=1;pointerEvents=1;expand=1;swimlaneFillColor=none;fontStyle=0;fontColor=light-dark(#333333, #ededed);swimlaneLine=0;textShadow=0;labelBorderColor=none;labelBackgroundColor=none;verticalAlign=middle;strokeColor=light-dark(#333333, #ededed);" vertex="1" parent="_dP8tCiRlAQ-4006Mm7O-82">
          <mxGeometry width="133.51724137931024" height="30" as="geometry">
            <mxRectangle width="133.51724137931024" height="30" as="alternateBounds" />
          </mxGeometry>
        </mxCell>
        <mxCell id="_dP8tCiRlAQ-4006Mm7O-84" value="Decimal" style="shape=partialRectangle;connectable=0;fillColor=none;top=0;left=0;bottom=0;right=0;align=right;spacingLeft=6;overflow=hidden;html=1;cloneable=1;rotatable=1;pointerEvents=1;expand=1;swimlaneFillColor=none;fontStyle=2;fontColor=#808080;spacingRight=10;strokeColor=#808080;swimlaneLine=0;textShadow=0;labelBorderColor=none;labelBackgroundColor=none;verticalAlign=middle;" vertex="1" parent="_dP8tCiRlAQ-4006Mm7O-82">
          <mxGeometry x="133.51724137931024" width="66.48275862068976" height="30" as="geometry">
            <mxRectangle width="66.48275862068976" height="30" as="alternateBounds" />
          </mxGeometry>
        </mxCell>
        <mxCell id="_dP8tCiRlAQ-4006Mm7O-79" style="shape=tableRow;horizontal=0;startSize=0;swimlaneHead=0;swimlaneBody=0;fillColor=none;collapsible=0;dropTarget=0;points=[[0,0.5],[1,0.5]];portConstraint=eastwest;top=0;left=0;right=0;bottom=0;cloneable=1;rotatable=1;pointerEvents=1;expand=1;swimlaneFillColor=none;align=left;swimlaneLine=0;textShadow=0;labelBorderColor=none;labelBackgroundColor=none;verticalAlign=middle;fontColor=default;fontStyle=0;strokeColor=default;" vertex="1" parent="_dP8tCiRlAQ-4006Mm7O-25">
          <mxGeometry y="390" width="200" height="30" as="geometry" />
        </mxCell>
        <mxCell id="_dP8tCiRlAQ-4006Mm7O-80" value="min_booking_duration" style="shape=partialRectangle;connectable=0;fillColor=none;top=0;left=0;bottom=0;right=0;align=left;spacingLeft=10;overflow=hidden;html=1;cloneable=1;rotatable=1;pointerEvents=1;expand=1;swimlaneFillColor=none;fontStyle=0;fontColor=light-dark(#333333, #ededed);swimlaneLine=0;textShadow=0;labelBorderColor=none;labelBackgroundColor=none;verticalAlign=middle;strokeColor=light-dark(#333333, #ededed);" vertex="1" parent="_dP8tCiRlAQ-4006Mm7O-79">
          <mxGeometry width="133.51724137931024" height="30" as="geometry">
            <mxRectangle width="133.51724137931024" height="30" as="alternateBounds" />
          </mxGeometry>
        </mxCell>
        <mxCell id="_dP8tCiRlAQ-4006Mm7O-81" value="Int" style="shape=partialRectangle;connectable=0;fillColor=none;top=0;left=0;bottom=0;right=0;align=right;spacingLeft=6;overflow=hidden;html=1;cloneable=1;rotatable=1;pointerEvents=1;expand=1;swimlaneFillColor=none;fontStyle=2;fontColor=#808080;spacingRight=10;strokeColor=#808080;swimlaneLine=0;textShadow=0;labelBorderColor=none;labelBackgroundColor=none;verticalAlign=middle;" vertex="1" parent="_dP8tCiRlAQ-4006Mm7O-79">
          <mxGeometry x="133.51724137931024" width="66.48275862068976" height="30" as="geometry">
            <mxRectangle width="66.48275862068976" height="30" as="alternateBounds" />
          </mxGeometry>
        </mxCell>
        <mxCell id="_dP8tCiRlAQ-4006Mm7O-88" style="shape=tableRow;horizontal=0;startSize=0;swimlaneHead=0;swimlaneBody=0;fillColor=none;collapsible=0;dropTarget=0;points=[[0,0.5],[1,0.5]];portConstraint=eastwest;top=0;left=0;right=0;bottom=0;cloneable=1;rotatable=1;pointerEvents=1;expand=1;swimlaneFillColor=none;align=left;swimlaneLine=0;textShadow=0;labelBorderColor=none;labelBackgroundColor=none;verticalAlign=middle;fontColor=default;fontStyle=0;strokeColor=default;" vertex="1" parent="_dP8tCiRlAQ-4006Mm7O-25">
          <mxGeometry y="420" width="200" height="30" as="geometry" />
        </mxCell>
        <mxCell id="_dP8tCiRlAQ-4006Mm7O-89" value="max_booking_duration" style="shape=partialRectangle;connectable=0;fillColor=none;top=0;left=0;bottom=0;right=0;align=left;spacingLeft=10;overflow=hidden;html=1;cloneable=1;rotatable=1;pointerEvents=1;expand=1;swimlaneFillColor=none;fontStyle=0;fontColor=light-dark(#333333, #ededed);swimlaneLine=0;textShadow=0;labelBorderColor=none;labelBackgroundColor=none;verticalAlign=middle;strokeColor=light-dark(#333333, #ededed);" vertex="1" parent="_dP8tCiRlAQ-4006Mm7O-88">
          <mxGeometry width="133.51724137931024" height="30" as="geometry">
            <mxRectangle width="133.51724137931024" height="30" as="alternateBounds" />
          </mxGeometry>
        </mxCell>
        <mxCell id="_dP8tCiRlAQ-4006Mm7O-90" value="Int" style="shape=partialRectangle;connectable=0;fillColor=none;top=0;left=0;bottom=0;right=0;align=right;spacingLeft=6;overflow=hidden;html=1;cloneable=1;rotatable=1;pointerEvents=1;expand=1;swimlaneFillColor=none;fontStyle=2;fontColor=#808080;spacingRight=10;strokeColor=#808080;swimlaneLine=0;textShadow=0;labelBorderColor=none;labelBackgroundColor=none;verticalAlign=middle;" vertex="1" parent="_dP8tCiRlAQ-4006Mm7O-88">
          <mxGeometry x="133.51724137931024" width="66.48275862068976" height="30" as="geometry">
            <mxRectangle width="66.48275862068976" height="30" as="alternateBounds" />
          </mxGeometry>
        </mxCell>
        <mxCell id="_dP8tCiRlAQ-4006Mm7O-47" style="edgeStyle=orthogonalEdgeStyle;rounded=1;orthogonalLoop=1;jettySize=auto;html=1;exitX=1;exitY=0.5;exitDx=0;exitDy=0;entryX=0;entryY=0.5;entryDx=0;entryDy=0;curved=0;fillColor=#f5f5f5;strokeColor=#666666;endArrow=ERmany;endFill=0;startArrow=ERone;startFill=0;" edge="1" parent="1" source="_dP8tCiRlAQ-4006Mm7O-2" target="_dP8tCiRlAQ-4006Mm7O-29">
          <mxGeometry relative="1" as="geometry">
            <Array as="points">
              <mxPoint x="470" y="205" />
              <mxPoint x="470" y="235" />
            </Array>
          </mxGeometry>
        </mxCell>
        <mxCell id="_dP8tCiRlAQ-4006Mm7O-48" value="zone_amenities" style="shape=table;startSize=30;container=1;collapsible=0;childLayout=tableLayout;fixedRows=1;rowLines=0;fontStyle=1;align=center;resizeLast=1;html=1;swimlaneLine=1;rounded=1;shadow=0;columnLines=0;swimlaneHead=1;swimlaneBody=1;horizontal=1;left=1;right=1;connectable=1;allowArrows=1;cloneable=1;rotatable=1;pointerEvents=1;expand=1;swimlaneFillColor=default;arcSize=7;flipV=0;flipH=0;direction=east;fillStyle=solid;verticalAlign=middle;labelBackgroundColor=none;fontSize=15;fillColor=#f5f5f5;strokeColor=#666666;fontColor=#333333;" vertex="1" parent="1">
          <mxGeometry x="800" y="160" width="200" height="150" as="geometry" />
        </mxCell>
        <mxCell id="_dP8tCiRlAQ-4006Mm7O-49" value="" style="shape=tableRow;horizontal=0;startSize=0;swimlaneHead=0;swimlaneBody=0;fillColor=none;collapsible=0;dropTarget=0;points=[[0,0.5],[1,0.5]];portConstraint=eastwest;top=0;left=0;right=0;bottom=0;cloneable=1;rotatable=1;pointerEvents=1;expand=1;swimlaneFillColor=none;align=left;strokeColor=default;swimlaneLine=0;textShadow=0;labelBorderColor=none;labelBackgroundColor=none;verticalAlign=middle;fontColor=default;fontStyle=0" vertex="1" parent="_dP8tCiRlAQ-4006Mm7O-48">
          <mxGeometry y="30" width="200" height="30" as="geometry" />
        </mxCell>
        <mxCell id="_dP8tCiRlAQ-4006Mm7O-50" value="id" style="shape=partialRectangle;connectable=0;fillColor=none;top=0;left=0;bottom=0;right=0;align=left;spacingLeft=10;overflow=hidden;cloneable=1;rotatable=1;pointerEvents=1;expand=1;swimlaneFillColor=none;fontStyle=1;fontColor=light-dark(#333333, #ededed);html=1;strokeColor=light-dark(#333333, #ededed);swimlaneLine=0;textShadow=0;labelBorderColor=none;labelBackgroundColor=none;verticalAlign=middle;" vertex="1" parent="_dP8tCiRlAQ-4006Mm7O-49">
          <mxGeometry width="120" height="30" as="geometry">
            <mxRectangle width="120" height="30" as="alternateBounds" />
          </mxGeometry>
        </mxCell>
        <mxCell id="_dP8tCiRlAQ-4006Mm7O-51" value="UUID" style="shape=partialRectangle;connectable=0;fillColor=none;top=0;left=0;bottom=0;right=0;align=right;spacingLeft=0;overflow=hidden;html=1;cloneable=1;rotatable=1;pointerEvents=1;expand=1;swimlaneFillColor=none;fontStyle=2;fontColor=#808080;spacingRight=10;strokeColor=#808080;swimlaneLine=0;textShadow=0;labelBorderColor=none;labelBackgroundColor=none;verticalAlign=middle;" vertex="1" parent="_dP8tCiRlAQ-4006Mm7O-49">
          <mxGeometry x="120" width="80" height="30" as="geometry">
            <mxRectangle width="80" height="30" as="alternateBounds" />
          </mxGeometry>
        </mxCell>
        <mxCell id="_dP8tCiRlAQ-4006Mm7O-52" value="" style="shape=tableRow;horizontal=0;startSize=0;swimlaneHead=0;swimlaneBody=0;fillColor=none;collapsible=0;dropTarget=0;points=[[0,0.5],[1,0.5]];portConstraint=eastwest;top=0;left=0;right=0;bottom=0;cloneable=1;rotatable=1;pointerEvents=1;expand=1;swimlaneFillColor=none;align=left;swimlaneLine=0;textShadow=0;labelBorderColor=none;labelBackgroundColor=none;verticalAlign=middle;fontColor=default;fontStyle=0;strokeColor=default;" vertex="1" parent="_dP8tCiRlAQ-4006Mm7O-48">
          <mxGeometry y="60" width="200" height="30" as="geometry" />
        </mxCell>
        <mxCell id="_dP8tCiRlAQ-4006Mm7O-53" value="zone_id" style="shape=partialRectangle;connectable=0;fillColor=none;top=0;left=0;bottom=0;right=0;align=left;spacingLeft=10;overflow=hidden;html=1;cloneable=1;rotatable=1;pointerEvents=1;expand=1;swimlaneFillColor=none;fontStyle=0;fontColor=light-dark(#333333, #ededed);swimlaneLine=0;textShadow=0;labelBorderColor=none;labelBackgroundColor=none;verticalAlign=middle;strokeColor=light-dark(#333333, #ededed);" vertex="1" parent="_dP8tCiRlAQ-4006Mm7O-52">
          <mxGeometry width="120" height="30" as="geometry">
            <mxRectangle width="120" height="30" as="alternateBounds" />
          </mxGeometry>
        </mxCell>
        <mxCell id="_dP8tCiRlAQ-4006Mm7O-54" value="UUID" style="shape=partialRectangle;connectable=0;fillColor=none;top=0;left=0;bottom=0;right=0;align=right;spacingLeft=0;overflow=hidden;html=1;cloneable=1;rotatable=1;pointerEvents=1;expand=1;swimlaneFillColor=none;fontStyle=2;fontColor=#808080;spacingRight=10;strokeColor=#808080;swimlaneLine=0;textShadow=0;labelBorderColor=none;labelBackgroundColor=none;verticalAlign=middle;" vertex="1" parent="_dP8tCiRlAQ-4006Mm7O-52">
          <mxGeometry x="120" width="80" height="30" as="geometry">
            <mxRectangle width="80" height="30" as="alternateBounds" />
          </mxGeometry>
        </mxCell>
        <mxCell id="_dP8tCiRlAQ-4006Mm7O-55" style="shape=tableRow;horizontal=0;startSize=0;swimlaneHead=0;swimlaneBody=0;fillColor=none;collapsible=0;dropTarget=0;points=[[0,0.5],[1,0.5]];portConstraint=eastwest;top=0;left=0;right=0;bottom=0;cloneable=1;rotatable=1;pointerEvents=1;expand=1;swimlaneFillColor=none;align=left;swimlaneLine=0;textShadow=0;labelBorderColor=none;labelBackgroundColor=none;verticalAlign=middle;fontColor=default;fontStyle=0;strokeColor=default;" vertex="1" parent="_dP8tCiRlAQ-4006Mm7O-48">
          <mxGeometry y="90" width="200" height="30" as="geometry" />
        </mxCell>
        <mxCell id="_dP8tCiRlAQ-4006Mm7O-56" value="amenity_id" style="shape=partialRectangle;connectable=0;fillColor=none;top=0;left=0;bottom=0;right=0;align=left;spacingLeft=10;overflow=hidden;html=1;cloneable=1;rotatable=1;pointerEvents=1;expand=1;swimlaneFillColor=none;fontStyle=0;fontColor=light-dark(#333333, #ededed);swimlaneLine=0;textShadow=0;labelBorderColor=none;labelBackgroundColor=none;verticalAlign=middle;strokeColor=light-dark(#333333, #ededed);" vertex="1" parent="_dP8tCiRlAQ-4006Mm7O-55">
          <mxGeometry width="120" height="30" as="geometry">
            <mxRectangle width="120" height="30" as="alternateBounds" />
          </mxGeometry>
        </mxCell>
        <mxCell id="_dP8tCiRlAQ-4006Mm7O-57" value="UUID" style="shape=partialRectangle;connectable=0;fillColor=none;top=0;left=0;bottom=0;right=0;align=right;spacingLeft=6;overflow=hidden;html=1;cloneable=1;rotatable=1;pointerEvents=1;expand=1;swimlaneFillColor=none;fontStyle=2;fontColor=#808080;spacingRight=10;strokeColor=#808080;swimlaneLine=0;textShadow=0;labelBorderColor=none;labelBackgroundColor=none;verticalAlign=middle;" vertex="1" parent="_dP8tCiRlAQ-4006Mm7O-55">
          <mxGeometry x="120" width="80" height="30" as="geometry">
            <mxRectangle width="80" height="30" as="alternateBounds" />
          </mxGeometry>
        </mxCell>
        <mxCell id="_dP8tCiRlAQ-4006Mm7O-58" value="" style="shape=tableRow;horizontal=0;startSize=0;swimlaneHead=0;swimlaneBody=0;fillColor=none;collapsible=0;dropTarget=0;points=[[0,0.5],[1,0.5]];portConstraint=eastwest;top=0;left=0;right=0;bottom=0;cloneable=1;rotatable=1;pointerEvents=1;expand=1;swimlaneFillColor=none;align=left;swimlaneLine=0;textShadow=0;labelBorderColor=none;labelBackgroundColor=none;verticalAlign=middle;fontColor=default;fontStyle=0;strokeColor=default;" vertex="1" parent="_dP8tCiRlAQ-4006Mm7O-48">
          <mxGeometry y="120" width="200" height="30" as="geometry" />
        </mxCell>
        <mxCell id="_dP8tCiRlAQ-4006Mm7O-59" value="note" style="shape=partialRectangle;connectable=0;fillColor=none;top=0;left=0;bottom=0;right=0;align=left;spacingLeft=10;overflow=hidden;html=1;cloneable=1;rotatable=1;pointerEvents=1;expand=1;swimlaneFillColor=none;fontStyle=0;fontColor=light-dark(#333333, #ededed);swimlaneLine=0;textShadow=0;labelBorderColor=none;labelBackgroundColor=none;verticalAlign=middle;strokeColor=light-dark(#333333, #ededed);" vertex="1" parent="_dP8tCiRlAQ-4006Mm7O-58">
          <mxGeometry width="120" height="30" as="geometry">
            <mxRectangle width="120" height="30" as="alternateBounds" />
          </mxGeometry>
        </mxCell>
        <mxCell id="_dP8tCiRlAQ-4006Mm7O-60" value="Text" style="shape=partialRectangle;connectable=0;fillColor=none;top=0;left=0;bottom=0;right=0;align=right;spacingLeft=6;overflow=hidden;html=1;cloneable=1;rotatable=1;pointerEvents=1;expand=1;swimlaneFillColor=none;fontStyle=2;fontColor=#808080;spacingRight=10;strokeColor=#808080;swimlaneLine=0;textShadow=0;labelBorderColor=none;labelBackgroundColor=none;verticalAlign=middle;" vertex="1" parent="_dP8tCiRlAQ-4006Mm7O-58">
          <mxGeometry x="120" width="80" height="30" as="geometry">
            <mxRectangle width="80" height="30" as="alternateBounds" />
          </mxGeometry>
        </mxCell>
        <mxCell id="_dP8tCiRlAQ-4006Mm7O-91" style="edgeStyle=orthogonalEdgeStyle;rounded=1;orthogonalLoop=1;jettySize=auto;html=1;exitX=1;exitY=0.5;exitDx=0;exitDy=0;entryX=0;entryY=0.5;entryDx=0;entryDy=0;curved=0;endArrow=ERmany;endFill=0;fillColor=#f5f5f5;strokeColor=#666666;startArrow=ERone;startFill=0;" edge="1" parent="1" source="_dP8tCiRlAQ-4006Mm7O-26" target="_dP8tCiRlAQ-4006Mm7O-52">
          <mxGeometry relative="1" as="geometry" />
        </mxCell>
        <mxCell id="_dP8tCiRlAQ-4006Mm7O-93" value="amenities" style="shape=table;startSize=30;container=1;collapsible=0;childLayout=tableLayout;fixedRows=1;rowLines=0;fontStyle=1;align=center;resizeLast=1;html=1;swimlaneLine=1;rounded=1;shadow=0;columnLines=0;swimlaneHead=1;swimlaneBody=1;horizontal=1;left=1;right=1;connectable=1;allowArrows=1;cloneable=1;rotatable=1;pointerEvents=1;expand=1;swimlaneFillColor=default;arcSize=7;flipV=0;flipH=0;direction=east;fillStyle=solid;verticalAlign=middle;labelBackgroundColor=none;fontSize=15;fillColor=#f5f5f5;strokeColor=#666666;fontColor=#333333;" vertex="1" parent="1">
          <mxGeometry x="1080" y="160" width="200" height="180" as="geometry" />
        </mxCell>
        <mxCell id="_dP8tCiRlAQ-4006Mm7O-94" value="" style="shape=tableRow;horizontal=0;startSize=0;swimlaneHead=0;swimlaneBody=0;fillColor=none;collapsible=0;dropTarget=0;points=[[0,0.5],[1,0.5]];portConstraint=eastwest;top=0;left=0;right=0;bottom=0;cloneable=1;rotatable=1;pointerEvents=1;expand=1;swimlaneFillColor=none;align=left;strokeColor=default;swimlaneLine=0;textShadow=0;labelBorderColor=none;labelBackgroundColor=none;verticalAlign=middle;fontColor=default;fontStyle=0" vertex="1" parent="_dP8tCiRlAQ-4006Mm7O-93">
          <mxGeometry y="30" width="200" height="30" as="geometry" />
        </mxCell>
        <mxCell id="_dP8tCiRlAQ-4006Mm7O-95" value="id" style="shape=partialRectangle;connectable=0;fillColor=none;top=0;left=0;bottom=0;right=0;align=left;spacingLeft=10;overflow=hidden;cloneable=1;rotatable=1;pointerEvents=1;expand=1;swimlaneFillColor=none;fontStyle=1;fontColor=light-dark(#333333, #ededed);html=1;strokeColor=light-dark(#333333, #ededed);swimlaneLine=0;textShadow=0;labelBorderColor=none;labelBackgroundColor=none;verticalAlign=middle;" vertex="1" parent="_dP8tCiRlAQ-4006Mm7O-94">
          <mxGeometry width="120" height="30" as="geometry">
            <mxRectangle width="120" height="30" as="alternateBounds" />
          </mxGeometry>
        </mxCell>
        <mxCell id="_dP8tCiRlAQ-4006Mm7O-96" value="UUID" style="shape=partialRectangle;connectable=0;fillColor=none;top=0;left=0;bottom=0;right=0;align=right;spacingLeft=0;overflow=hidden;html=1;cloneable=1;rotatable=1;pointerEvents=1;expand=1;swimlaneFillColor=none;fontStyle=2;fontColor=#808080;spacingRight=10;strokeColor=#808080;swimlaneLine=0;textShadow=0;labelBorderColor=none;labelBackgroundColor=none;verticalAlign=middle;" vertex="1" parent="_dP8tCiRlAQ-4006Mm7O-94">
          <mxGeometry x="120" width="80" height="30" as="geometry">
            <mxRectangle width="80" height="30" as="alternateBounds" />
          </mxGeometry>
        </mxCell>
        <mxCell id="_dP8tCiRlAQ-4006Mm7O-100" style="shape=tableRow;horizontal=0;startSize=0;swimlaneHead=0;swimlaneBody=0;fillColor=none;collapsible=0;dropTarget=0;points=[[0,0.5],[1,0.5]];portConstraint=eastwest;top=0;left=0;right=0;bottom=0;cloneable=1;rotatable=1;pointerEvents=1;expand=1;swimlaneFillColor=none;align=left;swimlaneLine=0;textShadow=0;labelBorderColor=none;labelBackgroundColor=none;verticalAlign=middle;fontColor=default;fontStyle=0;strokeColor=default;" vertex="1" parent="_dP8tCiRlAQ-4006Mm7O-93">
          <mxGeometry y="60" width="200" height="30" as="geometry" />
        </mxCell>
        <mxCell id="_dP8tCiRlAQ-4006Mm7O-101" value="category_id" style="shape=partialRectangle;connectable=0;fillColor=none;top=0;left=0;bottom=0;right=0;align=left;spacingLeft=10;overflow=hidden;html=1;cloneable=1;rotatable=1;pointerEvents=1;expand=1;swimlaneFillColor=none;fontStyle=0;fontColor=light-dark(#333333, #ededed);swimlaneLine=0;textShadow=0;labelBorderColor=none;labelBackgroundColor=none;verticalAlign=middle;strokeColor=light-dark(#333333, #ededed);" vertex="1" parent="_dP8tCiRlAQ-4006Mm7O-100">
          <mxGeometry width="120" height="30" as="geometry">
            <mxRectangle width="120" height="30" as="alternateBounds" />
          </mxGeometry>
        </mxCell>
        <mxCell id="_dP8tCiRlAQ-4006Mm7O-102" value="UUID" style="shape=partialRectangle;connectable=0;fillColor=none;top=0;left=0;bottom=0;right=0;align=right;spacingLeft=6;overflow=hidden;html=1;cloneable=1;rotatable=1;pointerEvents=1;expand=1;swimlaneFillColor=none;fontStyle=2;fontColor=#808080;spacingRight=10;strokeColor=#808080;swimlaneLine=0;textShadow=0;labelBorderColor=none;labelBackgroundColor=none;verticalAlign=middle;" vertex="1" parent="_dP8tCiRlAQ-4006Mm7O-100">
          <mxGeometry x="120" width="80" height="30" as="geometry">
            <mxRectangle width="80" height="30" as="alternateBounds" />
          </mxGeometry>
        </mxCell>
        <mxCell id="_dP8tCiRlAQ-4006Mm7O-97" value="" style="shape=tableRow;horizontal=0;startSize=0;swimlaneHead=0;swimlaneBody=0;fillColor=none;collapsible=0;dropTarget=0;points=[[0,0.5],[1,0.5]];portConstraint=eastwest;top=0;left=0;right=0;bottom=0;cloneable=1;rotatable=1;pointerEvents=1;expand=1;swimlaneFillColor=none;align=left;swimlaneLine=0;textShadow=0;labelBorderColor=none;labelBackgroundColor=none;verticalAlign=middle;fontColor=default;fontStyle=0;strokeColor=default;" vertex="1" parent="_dP8tCiRlAQ-4006Mm7O-93">
          <mxGeometry y="90" width="200" height="30" as="geometry" />
        </mxCell>
        <mxCell id="_dP8tCiRlAQ-4006Mm7O-98" value="name" style="shape=partialRectangle;connectable=0;fillColor=none;top=0;left=0;bottom=0;right=0;align=left;spacingLeft=10;overflow=hidden;html=1;cloneable=1;rotatable=1;pointerEvents=1;expand=1;swimlaneFillColor=none;fontStyle=0;fontColor=light-dark(#333333, #ededed);swimlaneLine=0;textShadow=0;labelBorderColor=none;labelBackgroundColor=none;verticalAlign=middle;strokeColor=light-dark(#333333, #ededed);" vertex="1" parent="_dP8tCiRlAQ-4006Mm7O-97">
          <mxGeometry width="120" height="30" as="geometry">
            <mxRectangle width="120" height="30" as="alternateBounds" />
          </mxGeometry>
        </mxCell>
        <mxCell id="_dP8tCiRlAQ-4006Mm7O-99" value="UUID" style="shape=partialRectangle;connectable=0;fillColor=none;top=0;left=0;bottom=0;right=0;align=right;spacingLeft=0;overflow=hidden;html=1;cloneable=1;rotatable=1;pointerEvents=1;expand=1;swimlaneFillColor=none;fontStyle=2;fontColor=#808080;spacingRight=10;strokeColor=#808080;swimlaneLine=0;textShadow=0;labelBorderColor=none;labelBackgroundColor=none;verticalAlign=middle;" vertex="1" parent="_dP8tCiRlAQ-4006Mm7O-97">
          <mxGeometry x="120" width="80" height="30" as="geometry">
            <mxRectangle width="80" height="30" as="alternateBounds" />
          </mxGeometry>
        </mxCell>
        <mxCell id="_dP8tCiRlAQ-4006Mm7O-103" value="" style="shape=tableRow;horizontal=0;startSize=0;swimlaneHead=0;swimlaneBody=0;fillColor=none;collapsible=0;dropTarget=0;points=[[0,0.5],[1,0.5]];portConstraint=eastwest;top=0;left=0;right=0;bottom=0;cloneable=1;rotatable=1;pointerEvents=1;expand=1;swimlaneFillColor=none;align=left;swimlaneLine=0;textShadow=0;labelBorderColor=none;labelBackgroundColor=none;verticalAlign=middle;fontColor=default;fontStyle=0;strokeColor=default;" vertex="1" parent="_dP8tCiRlAQ-4006Mm7O-93">
          <mxGeometry y="120" width="200" height="30" as="geometry" />
        </mxCell>
        <mxCell id="_dP8tCiRlAQ-4006Mm7O-104" value="description" style="shape=partialRectangle;connectable=0;fillColor=none;top=0;left=0;bottom=0;right=0;align=left;spacingLeft=10;overflow=hidden;html=1;cloneable=1;rotatable=1;pointerEvents=1;expand=1;swimlaneFillColor=none;fontStyle=0;fontColor=light-dark(#333333, #ededed);swimlaneLine=0;textShadow=0;labelBorderColor=none;labelBackgroundColor=none;verticalAlign=middle;strokeColor=light-dark(#333333, #ededed);" vertex="1" parent="_dP8tCiRlAQ-4006Mm7O-103">
          <mxGeometry width="120" height="30" as="geometry">
            <mxRectangle width="120" height="30" as="alternateBounds" />
          </mxGeometry>
        </mxCell>
        <mxCell id="_dP8tCiRlAQ-4006Mm7O-105" value="Text" style="shape=partialRectangle;connectable=0;fillColor=none;top=0;left=0;bottom=0;right=0;align=right;spacingLeft=6;overflow=hidden;html=1;cloneable=1;rotatable=1;pointerEvents=1;expand=1;swimlaneFillColor=none;fontStyle=2;fontColor=#808080;spacingRight=10;strokeColor=#808080;swimlaneLine=0;textShadow=0;labelBorderColor=none;labelBackgroundColor=none;verticalAlign=middle;" vertex="1" parent="_dP8tCiRlAQ-4006Mm7O-103">
          <mxGeometry x="120" width="80" height="30" as="geometry">
            <mxRectangle width="80" height="30" as="alternateBounds" />
          </mxGeometry>
        </mxCell>
        <mxCell id="_dP8tCiRlAQ-4006Mm7O-110" style="shape=tableRow;horizontal=0;startSize=0;swimlaneHead=0;swimlaneBody=0;fillColor=none;collapsible=0;dropTarget=0;points=[[0,0.5],[1,0.5]];portConstraint=eastwest;top=0;left=0;right=0;bottom=0;cloneable=1;rotatable=1;pointerEvents=1;expand=1;swimlaneFillColor=none;align=left;swimlaneLine=0;textShadow=0;labelBorderColor=none;labelBackgroundColor=none;verticalAlign=middle;fontColor=default;fontStyle=0;strokeColor=default;" vertex="1" parent="_dP8tCiRlAQ-4006Mm7O-93">
          <mxGeometry y="150" width="200" height="30" as="geometry" />
        </mxCell>
        <mxCell id="_dP8tCiRlAQ-4006Mm7O-111" value="icon_url" style="shape=partialRectangle;connectable=0;fillColor=none;top=0;left=0;bottom=0;right=0;align=left;spacingLeft=10;overflow=hidden;html=1;cloneable=1;rotatable=1;pointerEvents=1;expand=1;swimlaneFillColor=none;fontStyle=0;fontColor=light-dark(#333333, #ededed);swimlaneLine=0;textShadow=0;labelBorderColor=none;labelBackgroundColor=none;verticalAlign=middle;strokeColor=light-dark(#333333, #ededed);" vertex="1" parent="_dP8tCiRlAQ-4006Mm7O-110">
          <mxGeometry width="120" height="30" as="geometry">
            <mxRectangle width="120" height="30" as="alternateBounds" />
          </mxGeometry>
        </mxCell>
        <mxCell id="_dP8tCiRlAQ-4006Mm7O-112" value="Text" style="shape=partialRectangle;connectable=0;fillColor=none;top=0;left=0;bottom=0;right=0;align=right;spacingLeft=6;overflow=hidden;html=1;cloneable=1;rotatable=1;pointerEvents=1;expand=1;swimlaneFillColor=none;fontStyle=2;fontColor=#808080;spacingRight=10;strokeColor=#808080;swimlaneLine=0;textShadow=0;labelBorderColor=none;labelBackgroundColor=none;verticalAlign=middle;" vertex="1" parent="_dP8tCiRlAQ-4006Mm7O-110">
          <mxGeometry x="120" width="80" height="30" as="geometry">
            <mxRectangle width="80" height="30" as="alternateBounds" />
          </mxGeometry>
        </mxCell>
        <mxCell id="_dP8tCiRlAQ-4006Mm7O-106" style="edgeStyle=orthogonalEdgeStyle;rounded=1;orthogonalLoop=1;jettySize=auto;html=1;exitX=1;exitY=0.5;exitDx=0;exitDy=0;entryX=0;entryY=0.5;entryDx=0;entryDy=0;curved=0;endArrow=ERone;endFill=0;fillColor=#f5f5f5;strokeColor=#666666;startArrow=ERmany;startFill=0;" edge="1" parent="1" source="_dP8tCiRlAQ-4006Mm7O-55" target="_dP8tCiRlAQ-4006Mm7O-94">
          <mxGeometry relative="1" as="geometry" />
        </mxCell>
        <mxCell id="_dP8tCiRlAQ-4006Mm7O-113" value="amenity_categories" style="shape=table;startSize=30;container=1;collapsible=0;childLayout=tableLayout;fixedRows=1;rowLines=0;fontStyle=1;align=center;resizeLast=1;html=1;swimlaneLine=1;rounded=1;shadow=0;columnLines=0;swimlaneHead=1;swimlaneBody=1;horizontal=1;left=1;right=1;connectable=1;allowArrows=1;cloneable=1;rotatable=1;pointerEvents=1;expand=1;swimlaneFillColor=default;arcSize=7;flipV=0;flipH=0;direction=east;fillStyle=solid;verticalAlign=middle;labelBackgroundColor=none;fontSize=15;fillColor=#f5f5f5;strokeColor=#666666;fontColor=#333333;" vertex="1" parent="1">
          <mxGeometry x="1360" y="160" width="200" height="180" as="geometry" />
        </mxCell>
        <mxCell id="_dP8tCiRlAQ-4006Mm7O-114" value="" style="shape=tableRow;horizontal=0;startSize=0;swimlaneHead=0;swimlaneBody=0;fillColor=none;collapsible=0;dropTarget=0;points=[[0,0.5],[1,0.5]];portConstraint=eastwest;top=0;left=0;right=0;bottom=0;cloneable=1;rotatable=1;pointerEvents=1;expand=1;swimlaneFillColor=none;align=left;strokeColor=default;swimlaneLine=0;textShadow=0;labelBorderColor=none;labelBackgroundColor=none;verticalAlign=middle;fontColor=default;fontStyle=0" vertex="1" parent="_dP8tCiRlAQ-4006Mm7O-113">
          <mxGeometry y="30" width="200" height="30" as="geometry" />
        </mxCell>
        <mxCell id="_dP8tCiRlAQ-4006Mm7O-115" value="id" style="shape=partialRectangle;connectable=0;fillColor=none;top=0;left=0;bottom=0;right=0;align=left;spacingLeft=10;overflow=hidden;cloneable=1;rotatable=1;pointerEvents=1;expand=1;swimlaneFillColor=none;fontStyle=1;fontColor=light-dark(#333333, #ededed);html=1;strokeColor=light-dark(#333333, #ededed);swimlaneLine=0;textShadow=0;labelBorderColor=none;labelBackgroundColor=none;verticalAlign=middle;" vertex="1" parent="_dP8tCiRlAQ-4006Mm7O-114">
          <mxGeometry width="120" height="30" as="geometry">
            <mxRectangle width="120" height="30" as="alternateBounds" />
          </mxGeometry>
        </mxCell>
        <mxCell id="_dP8tCiRlAQ-4006Mm7O-116" value="UUID" style="shape=partialRectangle;connectable=0;fillColor=none;top=0;left=0;bottom=0;right=0;align=right;spacingLeft=0;overflow=hidden;html=1;cloneable=1;rotatable=1;pointerEvents=1;expand=1;swimlaneFillColor=none;fontStyle=2;fontColor=#808080;spacingRight=10;strokeColor=#808080;swimlaneLine=0;textShadow=0;labelBorderColor=none;labelBackgroundColor=none;verticalAlign=middle;" vertex="1" parent="_dP8tCiRlAQ-4006Mm7O-114">
          <mxGeometry x="120" width="80" height="30" as="geometry">
            <mxRectangle width="80" height="30" as="alternateBounds" />
          </mxGeometry>
        </mxCell>
        <mxCell id="_dP8tCiRlAQ-4006Mm7O-117" style="shape=tableRow;horizontal=0;startSize=0;swimlaneHead=0;swimlaneBody=0;fillColor=none;collapsible=0;dropTarget=0;points=[[0,0.5],[1,0.5]];portConstraint=eastwest;top=0;left=0;right=0;bottom=0;cloneable=1;rotatable=1;pointerEvents=1;expand=1;swimlaneFillColor=none;align=left;swimlaneLine=0;textShadow=0;labelBorderColor=none;labelBackgroundColor=none;verticalAlign=middle;fontColor=default;fontStyle=0;strokeColor=default;" vertex="1" parent="_dP8tCiRlAQ-4006Mm7O-113">
          <mxGeometry y="60" width="200" height="30" as="geometry" />
        </mxCell>
        <mxCell id="_dP8tCiRlAQ-4006Mm7O-118" value="name" style="shape=partialRectangle;connectable=0;fillColor=none;top=0;left=0;bottom=0;right=0;align=left;spacingLeft=10;overflow=hidden;html=1;cloneable=1;rotatable=1;pointerEvents=1;expand=1;swimlaneFillColor=none;fontStyle=0;fontColor=light-dark(#333333, #ededed);swimlaneLine=0;textShadow=0;labelBorderColor=none;labelBackgroundColor=none;verticalAlign=middle;strokeColor=light-dark(#333333, #ededed);" vertex="1" parent="_dP8tCiRlAQ-4006Mm7O-117">
          <mxGeometry width="120" height="30" as="geometry">
            <mxRectangle width="120" height="30" as="alternateBounds" />
          </mxGeometry>
        </mxCell>
        <mxCell id="_dP8tCiRlAQ-4006Mm7O-119" value="UUID" style="shape=partialRectangle;connectable=0;fillColor=none;top=0;left=0;bottom=0;right=0;align=right;spacingLeft=6;overflow=hidden;html=1;cloneable=1;rotatable=1;pointerEvents=1;expand=1;swimlaneFillColor=none;fontStyle=2;fontColor=#808080;spacingRight=10;strokeColor=#808080;swimlaneLine=0;textShadow=0;labelBorderColor=none;labelBackgroundColor=none;verticalAlign=middle;" vertex="1" parent="_dP8tCiRlAQ-4006Mm7O-117">
          <mxGeometry x="120" width="80" height="30" as="geometry">
            <mxRectangle width="80" height="30" as="alternateBounds" />
          </mxGeometry>
        </mxCell>
        <mxCell id="_dP8tCiRlAQ-4006Mm7O-120" value="" style="shape=tableRow;horizontal=0;startSize=0;swimlaneHead=0;swimlaneBody=0;fillColor=none;collapsible=0;dropTarget=0;points=[[0,0.5],[1,0.5]];portConstraint=eastwest;top=0;left=0;right=0;bottom=0;cloneable=1;rotatable=1;pointerEvents=1;expand=1;swimlaneFillColor=none;align=left;swimlaneLine=0;textShadow=0;labelBorderColor=none;labelBackgroundColor=none;verticalAlign=middle;fontColor=default;fontStyle=0;strokeColor=default;" vertex="1" parent="_dP8tCiRlAQ-4006Mm7O-113">
          <mxGeometry y="90" width="200" height="30" as="geometry" />
        </mxCell>
        <mxCell id="_dP8tCiRlAQ-4006Mm7O-121" value="description" style="shape=partialRectangle;connectable=0;fillColor=none;top=0;left=0;bottom=0;right=0;align=left;spacingLeft=10;overflow=hidden;html=1;cloneable=1;rotatable=1;pointerEvents=1;expand=1;swimlaneFillColor=none;fontStyle=0;fontColor=light-dark(#333333, #ededed);swimlaneLine=0;textShadow=0;labelBorderColor=none;labelBackgroundColor=none;verticalAlign=middle;strokeColor=light-dark(#333333, #ededed);" vertex="1" parent="_dP8tCiRlAQ-4006Mm7O-120">
          <mxGeometry width="120" height="30" as="geometry">
            <mxRectangle width="120" height="30" as="alternateBounds" />
          </mxGeometry>
        </mxCell>
        <mxCell id="_dP8tCiRlAQ-4006Mm7O-122" value="Text" style="shape=partialRectangle;connectable=0;fillColor=none;top=0;left=0;bottom=0;right=0;align=right;spacingLeft=0;overflow=hidden;html=1;cloneable=1;rotatable=1;pointerEvents=1;expand=1;swimlaneFillColor=none;fontStyle=2;fontColor=#808080;spacingRight=10;strokeColor=#808080;swimlaneLine=0;textShadow=0;labelBorderColor=none;labelBackgroundColor=none;verticalAlign=middle;" vertex="1" parent="_dP8tCiRlAQ-4006Mm7O-120">
          <mxGeometry x="120" width="80" height="30" as="geometry">
            <mxRectangle width="80" height="30" as="alternateBounds" />
          </mxGeometry>
        </mxCell>
        <mxCell id="_dP8tCiRlAQ-4006Mm7O-123" value="" style="shape=tableRow;horizontal=0;startSize=0;swimlaneHead=0;swimlaneBody=0;fillColor=none;collapsible=0;dropTarget=0;points=[[0,0.5],[1,0.5]];portConstraint=eastwest;top=0;left=0;right=0;bottom=0;cloneable=1;rotatable=1;pointerEvents=1;expand=1;swimlaneFillColor=none;align=left;swimlaneLine=0;textShadow=0;labelBorderColor=none;labelBackgroundColor=none;verticalAlign=middle;fontColor=default;fontStyle=0;strokeColor=default;" vertex="1" parent="_dP8tCiRlAQ-4006Mm7O-113">
          <mxGeometry y="120" width="200" height="30" as="geometry" />
        </mxCell>
        <mxCell id="_dP8tCiRlAQ-4006Mm7O-124" value="icon_url" style="shape=partialRectangle;connectable=0;fillColor=none;top=0;left=0;bottom=0;right=0;align=left;spacingLeft=10;overflow=hidden;html=1;cloneable=1;rotatable=1;pointerEvents=1;expand=1;swimlaneFillColor=none;fontStyle=0;fontColor=light-dark(#333333, #ededed);swimlaneLine=0;textShadow=0;labelBorderColor=none;labelBackgroundColor=none;verticalAlign=middle;strokeColor=light-dark(#333333, #ededed);" vertex="1" parent="_dP8tCiRlAQ-4006Mm7O-123">
          <mxGeometry width="120" height="30" as="geometry">
            <mxRectangle width="120" height="30" as="alternateBounds" />
          </mxGeometry>
        </mxCell>
        <mxCell id="_dP8tCiRlAQ-4006Mm7O-125" value="Text" style="shape=partialRectangle;connectable=0;fillColor=none;top=0;left=0;bottom=0;right=0;align=right;spacingLeft=6;overflow=hidden;html=1;cloneable=1;rotatable=1;pointerEvents=1;expand=1;swimlaneFillColor=none;fontStyle=2;fontColor=#808080;spacingRight=10;strokeColor=#808080;swimlaneLine=0;textShadow=0;labelBorderColor=none;labelBackgroundColor=none;verticalAlign=middle;" vertex="1" parent="_dP8tCiRlAQ-4006Mm7O-123">
          <mxGeometry x="120" width="80" height="30" as="geometry">
            <mxRectangle width="80" height="30" as="alternateBounds" />
          </mxGeometry>
        </mxCell>
        <mxCell id="_dP8tCiRlAQ-4006Mm7O-126" style="shape=tableRow;horizontal=0;startSize=0;swimlaneHead=0;swimlaneBody=0;fillColor=none;collapsible=0;dropTarget=0;points=[[0,0.5],[1,0.5]];portConstraint=eastwest;top=0;left=0;right=0;bottom=0;cloneable=1;rotatable=1;pointerEvents=1;expand=1;swimlaneFillColor=none;align=left;swimlaneLine=0;textShadow=0;labelBorderColor=none;labelBackgroundColor=none;verticalAlign=middle;fontColor=default;fontStyle=0;strokeColor=default;" vertex="1" parent="_dP8tCiRlAQ-4006Mm7O-113">
          <mxGeometry y="150" width="200" height="30" as="geometry" />
        </mxCell>
        <mxCell id="_dP8tCiRlAQ-4006Mm7O-127" value="sort_order" style="shape=partialRectangle;connectable=0;fillColor=none;top=0;left=0;bottom=0;right=0;align=left;spacingLeft=10;overflow=hidden;html=1;cloneable=1;rotatable=1;pointerEvents=1;expand=1;swimlaneFillColor=none;fontStyle=0;fontColor=light-dark(#333333, #ededed);swimlaneLine=0;textShadow=0;labelBorderColor=none;labelBackgroundColor=none;verticalAlign=middle;strokeColor=light-dark(#333333, #ededed);" vertex="1" parent="_dP8tCiRlAQ-4006Mm7O-126">
          <mxGeometry width="120" height="30" as="geometry">
            <mxRectangle width="120" height="30" as="alternateBounds" />
          </mxGeometry>
        </mxCell>
        <mxCell id="_dP8tCiRlAQ-4006Mm7O-128" value="Text" style="shape=partialRectangle;connectable=0;fillColor=none;top=0;left=0;bottom=0;right=0;align=right;spacingLeft=6;overflow=hidden;html=1;cloneable=1;rotatable=1;pointerEvents=1;expand=1;swimlaneFillColor=none;fontStyle=2;fontColor=#808080;spacingRight=10;strokeColor=#808080;swimlaneLine=0;textShadow=0;labelBorderColor=none;labelBackgroundColor=none;verticalAlign=middle;" vertex="1" parent="_dP8tCiRlAQ-4006Mm7O-126">
          <mxGeometry x="120" width="80" height="30" as="geometry">
            <mxRectangle width="80" height="30" as="alternateBounds" />
          </mxGeometry>
        </mxCell>
        <mxCell id="_dP8tCiRlAQ-4006Mm7O-129" style="edgeStyle=orthogonalEdgeStyle;rounded=1;orthogonalLoop=1;jettySize=auto;html=1;exitX=1;exitY=0.5;exitDx=0;exitDy=0;entryX=0;entryY=0.5;entryDx=0;entryDy=0;curved=0;fillColor=#f5f5f5;strokeColor=#666666;endArrow=ERone;endFill=0;startArrow=ERmany;startFill=0;" edge="1" parent="1" source="_dP8tCiRlAQ-4006Mm7O-100" target="_dP8tCiRlAQ-4006Mm7O-114">
          <mxGeometry relative="1" as="geometry" />
        </mxCell>
        <mxCell id="_dP8tCiRlAQ-4006Mm7O-130" value="images" style="shape=table;startSize=30;container=1;collapsible=0;childLayout=tableLayout;fixedRows=1;rowLines=0;fontStyle=1;align=center;resizeLast=1;html=1;swimlaneLine=1;rounded=1;shadow=0;columnLines=0;swimlaneHead=1;swimlaneBody=1;horizontal=1;left=1;right=1;connectable=1;allowArrows=1;cloneable=1;rotatable=1;pointerEvents=1;expand=1;swimlaneFillColor=default;arcSize=7;flipV=0;flipH=0;direction=east;fillStyle=solid;verticalAlign=middle;labelBackgroundColor=none;fontSize=15;fillColor=#f5f5f5;strokeColor=#666666;fontColor=#333333;" vertex="1" parent="1">
          <mxGeometry x="240" y="420" width="200" height="270" as="geometry" />
        </mxCell>
        <mxCell id="_dP8tCiRlAQ-4006Mm7O-131" value="" style="shape=tableRow;horizontal=0;startSize=0;swimlaneHead=0;swimlaneBody=0;fillColor=none;collapsible=0;dropTarget=0;points=[[0,0.5],[1,0.5]];portConstraint=eastwest;top=0;left=0;right=0;bottom=0;cloneable=1;rotatable=1;pointerEvents=1;expand=1;swimlaneFillColor=none;align=left;strokeColor=default;swimlaneLine=0;textShadow=0;labelBorderColor=none;labelBackgroundColor=none;verticalAlign=middle;fontColor=default;fontStyle=0" vertex="1" parent="_dP8tCiRlAQ-4006Mm7O-130">
          <mxGeometry y="30" width="200" height="30" as="geometry" />
        </mxCell>
        <mxCell id="_dP8tCiRlAQ-4006Mm7O-132" value="id" style="shape=partialRectangle;connectable=0;fillColor=none;top=0;left=0;bottom=0;right=0;align=left;spacingLeft=10;overflow=hidden;cloneable=1;rotatable=1;pointerEvents=1;expand=1;swimlaneFillColor=none;fontStyle=1;fontColor=light-dark(#333333, #ededed);html=1;strokeColor=light-dark(#333333, #ededed);swimlaneLine=0;textShadow=0;labelBorderColor=none;labelBackgroundColor=none;verticalAlign=middle;" vertex="1" parent="_dP8tCiRlAQ-4006Mm7O-131">
          <mxGeometry width="120" height="30" as="geometry">
            <mxRectangle width="120" height="30" as="alternateBounds" />
          </mxGeometry>
        </mxCell>
        <mxCell id="_dP8tCiRlAQ-4006Mm7O-133" value="UUID" style="shape=partialRectangle;connectable=0;fillColor=none;top=0;left=0;bottom=0;right=0;align=right;spacingLeft=0;overflow=hidden;html=1;cloneable=1;rotatable=1;pointerEvents=1;expand=1;swimlaneFillColor=none;fontStyle=2;fontColor=#808080;spacingRight=10;strokeColor=#808080;swimlaneLine=0;textShadow=0;labelBorderColor=none;labelBackgroundColor=none;verticalAlign=middle;" vertex="1" parent="_dP8tCiRlAQ-4006Mm7O-131">
          <mxGeometry x="120" width="80" height="30" as="geometry">
            <mxRectangle width="80" height="30" as="alternateBounds" />
          </mxGeometry>
        </mxCell>
        <mxCell id="_dP8tCiRlAQ-4006Mm7O-134" value="" style="shape=tableRow;horizontal=0;startSize=0;swimlaneHead=0;swimlaneBody=0;fillColor=none;collapsible=0;dropTarget=0;points=[[0,0.5],[1,0.5]];portConstraint=eastwest;top=0;left=0;right=0;bottom=0;cloneable=1;rotatable=1;pointerEvents=1;expand=1;swimlaneFillColor=none;align=left;swimlaneLine=0;textShadow=0;labelBorderColor=none;labelBackgroundColor=none;verticalAlign=middle;fontColor=default;fontStyle=0;strokeColor=default;" vertex="1" parent="_dP8tCiRlAQ-4006Mm7O-130">
          <mxGeometry y="60" width="200" height="30" as="geometry" />
        </mxCell>
        <mxCell id="_dP8tCiRlAQ-4006Mm7O-135" value="entity_id" style="shape=partialRectangle;connectable=0;fillColor=none;top=0;left=0;bottom=0;right=0;align=left;spacingLeft=10;overflow=hidden;html=1;cloneable=1;rotatable=1;pointerEvents=1;expand=1;swimlaneFillColor=none;fontStyle=0;fontColor=light-dark(#333333, #ededed);swimlaneLine=0;textShadow=0;labelBorderColor=none;labelBackgroundColor=none;verticalAlign=middle;strokeColor=light-dark(#333333, #ededed);" vertex="1" parent="_dP8tCiRlAQ-4006Mm7O-134">
          <mxGeometry width="120" height="30" as="geometry">
            <mxRectangle width="120" height="30" as="alternateBounds" />
          </mxGeometry>
        </mxCell>
        <mxCell id="_dP8tCiRlAQ-4006Mm7O-136" value="UUID" style="shape=partialRectangle;connectable=0;fillColor=none;top=0;left=0;bottom=0;right=0;align=right;spacingLeft=0;overflow=hidden;html=1;cloneable=1;rotatable=1;pointerEvents=1;expand=1;swimlaneFillColor=none;fontStyle=2;fontColor=#808080;spacingRight=10;strokeColor=#808080;swimlaneLine=0;textShadow=0;labelBorderColor=none;labelBackgroundColor=none;verticalAlign=middle;" vertex="1" parent="_dP8tCiRlAQ-4006Mm7O-134">
          <mxGeometry x="120" width="80" height="30" as="geometry">
            <mxRectangle width="80" height="30" as="alternateBounds" />
          </mxGeometry>
        </mxCell>
        <mxCell id="_dP8tCiRlAQ-4006Mm7O-137" style="shape=tableRow;horizontal=0;startSize=0;swimlaneHead=0;swimlaneBody=0;fillColor=none;collapsible=0;dropTarget=0;points=[[0,0.5],[1,0.5]];portConstraint=eastwest;top=0;left=0;right=0;bottom=0;cloneable=1;rotatable=1;pointerEvents=1;expand=1;swimlaneFillColor=none;align=left;swimlaneLine=0;textShadow=0;labelBorderColor=none;labelBackgroundColor=none;verticalAlign=middle;fontColor=default;fontStyle=0;strokeColor=default;" vertex="1" parent="_dP8tCiRlAQ-4006Mm7O-130">
          <mxGeometry y="90" width="200" height="30" as="geometry" />
        </mxCell>
        <mxCell id="_dP8tCiRlAQ-4006Mm7O-138" value="entity_type" style="shape=partialRectangle;connectable=0;fillColor=none;top=0;left=0;bottom=0;right=0;align=left;spacingLeft=10;overflow=hidden;html=1;cloneable=1;rotatable=1;pointerEvents=1;expand=1;swimlaneFillColor=none;fontStyle=0;fontColor=light-dark(#333333, #ededed);swimlaneLine=0;textShadow=0;labelBorderColor=none;labelBackgroundColor=none;verticalAlign=middle;strokeColor=light-dark(#333333, #ededed);" vertex="1" parent="_dP8tCiRlAQ-4006Mm7O-137">
          <mxGeometry width="120" height="30" as="geometry">
            <mxRectangle width="120" height="30" as="alternateBounds" />
          </mxGeometry>
        </mxCell>
        <mxCell id="_dP8tCiRlAQ-4006Mm7O-139" value="uuid" style="shape=partialRectangle;connectable=0;fillColor=none;top=0;left=0;bottom=0;right=0;align=right;spacingLeft=6;overflow=hidden;html=1;cloneable=1;rotatable=1;pointerEvents=1;expand=1;swimlaneFillColor=none;fontStyle=2;fontColor=#808080;spacingRight=10;strokeColor=#808080;swimlaneLine=0;textShadow=0;labelBorderColor=none;labelBackgroundColor=none;verticalAlign=middle;" vertex="1" parent="_dP8tCiRlAQ-4006Mm7O-137">
          <mxGeometry x="120" width="80" height="30" as="geometry">
            <mxRectangle width="80" height="30" as="alternateBounds" />
          </mxGeometry>
        </mxCell>
        <mxCell id="_dP8tCiRlAQ-4006Mm7O-145" style="shape=tableRow;horizontal=0;startSize=0;swimlaneHead=0;swimlaneBody=0;fillColor=none;collapsible=0;dropTarget=0;points=[[0,0.5],[1,0.5]];portConstraint=eastwest;top=0;left=0;right=0;bottom=0;cloneable=1;rotatable=1;pointerEvents=1;expand=1;swimlaneFillColor=none;align=left;swimlaneLine=0;textShadow=0;labelBorderColor=none;labelBackgroundColor=none;verticalAlign=middle;fontColor=default;fontStyle=0;strokeColor=default;" vertex="1" parent="_dP8tCiRlAQ-4006Mm7O-130">
          <mxGeometry y="120" width="200" height="30" as="geometry" />
        </mxCell>
        <mxCell id="_dP8tCiRlAQ-4006Mm7O-146" value="type" style="shape=partialRectangle;connectable=0;fillColor=none;top=0;left=0;bottom=0;right=0;align=left;spacingLeft=10;overflow=hidden;html=1;cloneable=1;rotatable=1;pointerEvents=1;expand=1;swimlaneFillColor=none;fontStyle=0;fontColor=light-dark(#333333, #ededed);swimlaneLine=0;textShadow=0;labelBorderColor=none;labelBackgroundColor=none;verticalAlign=middle;strokeColor=light-dark(#333333, #ededed);" vertex="1" parent="_dP8tCiRlAQ-4006Mm7O-145">
          <mxGeometry width="120" height="30" as="geometry">
            <mxRectangle width="120" height="30" as="alternateBounds" />
          </mxGeometry>
        </mxCell>
        <mxCell id="_dP8tCiRlAQ-4006Mm7O-147" value="ENUM" style="shape=partialRectangle;connectable=0;fillColor=none;top=0;left=0;bottom=0;right=0;align=right;spacingLeft=6;overflow=hidden;html=1;cloneable=1;rotatable=1;pointerEvents=1;expand=1;swimlaneFillColor=none;fontStyle=2;fontColor=#808080;spacingRight=10;strokeColor=#808080;swimlaneLine=0;textShadow=0;labelBorderColor=none;labelBackgroundColor=none;verticalAlign=middle;" vertex="1" parent="_dP8tCiRlAQ-4006Mm7O-145">
          <mxGeometry x="120" width="80" height="30" as="geometry">
            <mxRectangle width="80" height="30" as="alternateBounds" />
          </mxGeometry>
        </mxCell>
        <mxCell id="_dP8tCiRlAQ-4006Mm7O-140" value="" style="shape=tableRow;horizontal=0;startSize=0;swimlaneHead=0;swimlaneBody=0;fillColor=none;collapsible=0;dropTarget=0;points=[[0,0.5],[1,0.5]];portConstraint=eastwest;top=0;left=0;right=0;bottom=0;cloneable=1;rotatable=1;pointerEvents=1;expand=1;swimlaneFillColor=none;align=left;swimlaneLine=0;textShadow=0;labelBorderColor=none;labelBackgroundColor=none;verticalAlign=middle;fontColor=default;fontStyle=0;strokeColor=default;" vertex="1" parent="_dP8tCiRlAQ-4006Mm7O-130">
          <mxGeometry y="150" width="200" height="30" as="geometry" />
        </mxCell>
        <mxCell id="_dP8tCiRlAQ-4006Mm7O-141" value="sort_order" style="shape=partialRectangle;connectable=0;fillColor=none;top=0;left=0;bottom=0;right=0;align=left;spacingLeft=10;overflow=hidden;html=1;cloneable=1;rotatable=1;pointerEvents=1;expand=1;swimlaneFillColor=none;fontStyle=0;fontColor=light-dark(#333333, #ededed);swimlaneLine=0;textShadow=0;labelBorderColor=none;labelBackgroundColor=none;verticalAlign=middle;strokeColor=light-dark(#333333, #ededed);" vertex="1" parent="_dP8tCiRlAQ-4006Mm7O-140">
          <mxGeometry width="120" height="30" as="geometry">
            <mxRectangle width="120" height="30" as="alternateBounds" />
          </mxGeometry>
        </mxCell>
        <mxCell id="_dP8tCiRlAQ-4006Mm7O-142" value="Text" style="shape=partialRectangle;connectable=0;fillColor=none;top=0;left=0;bottom=0;right=0;align=right;spacingLeft=6;overflow=hidden;html=1;cloneable=1;rotatable=1;pointerEvents=1;expand=1;swimlaneFillColor=none;fontStyle=2;fontColor=#808080;spacingRight=10;strokeColor=#808080;swimlaneLine=0;textShadow=0;labelBorderColor=none;labelBackgroundColor=none;verticalAlign=middle;" vertex="1" parent="_dP8tCiRlAQ-4006Mm7O-140">
          <mxGeometry x="120" width="80" height="30" as="geometry">
            <mxRectangle width="80" height="30" as="alternateBounds" />
          </mxGeometry>
        </mxCell>
        <mxCell id="_dP8tCiRlAQ-4006Mm7O-148" style="shape=tableRow;horizontal=0;startSize=0;swimlaneHead=0;swimlaneBody=0;fillColor=none;collapsible=0;dropTarget=0;points=[[0,0.5],[1,0.5]];portConstraint=eastwest;top=0;left=0;right=0;bottom=0;cloneable=1;rotatable=1;pointerEvents=1;expand=1;swimlaneFillColor=none;align=left;swimlaneLine=0;textShadow=0;labelBorderColor=none;labelBackgroundColor=none;verticalAlign=middle;fontColor=default;fontStyle=0;strokeColor=default;" vertex="1" parent="_dP8tCiRlAQ-4006Mm7O-130">
          <mxGeometry y="180" width="200" height="30" as="geometry" />
        </mxCell>
        <mxCell id="_dP8tCiRlAQ-4006Mm7O-149" value="size" style="shape=partialRectangle;connectable=0;fillColor=none;top=0;left=0;bottom=0;right=0;align=left;spacingLeft=10;overflow=hidden;html=1;cloneable=1;rotatable=1;pointerEvents=1;expand=1;swimlaneFillColor=none;fontStyle=0;fontColor=light-dark(#333333, #ededed);swimlaneLine=0;textShadow=0;labelBorderColor=none;labelBackgroundColor=none;verticalAlign=middle;strokeColor=light-dark(#333333, #ededed);" vertex="1" parent="_dP8tCiRlAQ-4006Mm7O-148">
          <mxGeometry width="120" height="30" as="geometry">
            <mxRectangle width="120" height="30" as="alternateBounds" />
          </mxGeometry>
        </mxCell>
        <mxCell id="_dP8tCiRlAQ-4006Mm7O-150" value="Int" style="shape=partialRectangle;connectable=0;fillColor=none;top=0;left=0;bottom=0;right=0;align=right;spacingLeft=6;overflow=hidden;html=1;cloneable=1;rotatable=1;pointerEvents=1;expand=1;swimlaneFillColor=none;fontStyle=2;fontColor=#808080;spacingRight=10;strokeColor=#808080;swimlaneLine=0;textShadow=0;labelBorderColor=none;labelBackgroundColor=none;verticalAlign=middle;" vertex="1" parent="_dP8tCiRlAQ-4006Mm7O-148">
          <mxGeometry x="120" width="80" height="30" as="geometry">
            <mxRectangle width="80" height="30" as="alternateBounds" />
          </mxGeometry>
        </mxCell>
        <mxCell id="_dP8tCiRlAQ-4006Mm7O-151" style="shape=tableRow;horizontal=0;startSize=0;swimlaneHead=0;swimlaneBody=0;fillColor=none;collapsible=0;dropTarget=0;points=[[0,0.5],[1,0.5]];portConstraint=eastwest;top=0;left=0;right=0;bottom=0;cloneable=1;rotatable=1;pointerEvents=1;expand=1;swimlaneFillColor=none;align=left;swimlaneLine=0;textShadow=0;labelBorderColor=none;labelBackgroundColor=none;verticalAlign=middle;fontColor=default;fontStyle=0;strokeColor=default;" vertex="1" parent="_dP8tCiRlAQ-4006Mm7O-130">
          <mxGeometry y="210" width="200" height="30" as="geometry" />
        </mxCell>
        <mxCell id="_dP8tCiRlAQ-4006Mm7O-152" value="width" style="shape=partialRectangle;connectable=0;fillColor=none;top=0;left=0;bottom=0;right=0;align=left;spacingLeft=10;overflow=hidden;html=1;cloneable=1;rotatable=1;pointerEvents=1;expand=1;swimlaneFillColor=none;fontStyle=0;fontColor=light-dark(#333333, #ededed);swimlaneLine=0;textShadow=0;labelBorderColor=none;labelBackgroundColor=none;verticalAlign=middle;strokeColor=light-dark(#333333, #ededed);" vertex="1" parent="_dP8tCiRlAQ-4006Mm7O-151">
          <mxGeometry width="120" height="30" as="geometry">
            <mxRectangle width="120" height="30" as="alternateBounds" />
          </mxGeometry>
        </mxCell>
        <mxCell id="_dP8tCiRlAQ-4006Mm7O-153" value="Int" style="shape=partialRectangle;connectable=0;fillColor=none;top=0;left=0;bottom=0;right=0;align=right;spacingLeft=6;overflow=hidden;html=1;cloneable=1;rotatable=1;pointerEvents=1;expand=1;swimlaneFillColor=none;fontStyle=2;fontColor=#808080;spacingRight=10;strokeColor=#808080;swimlaneLine=0;textShadow=0;labelBorderColor=none;labelBackgroundColor=none;verticalAlign=middle;" vertex="1" parent="_dP8tCiRlAQ-4006Mm7O-151">
          <mxGeometry x="120" width="80" height="30" as="geometry">
            <mxRectangle width="80" height="30" as="alternateBounds" />
          </mxGeometry>
        </mxCell>
        <mxCell id="_dP8tCiRlAQ-4006Mm7O-154" style="shape=tableRow;horizontal=0;startSize=0;swimlaneHead=0;swimlaneBody=0;fillColor=none;collapsible=0;dropTarget=0;points=[[0,0.5],[1,0.5]];portConstraint=eastwest;top=0;left=0;right=0;bottom=0;cloneable=1;rotatable=1;pointerEvents=1;expand=1;swimlaneFillColor=none;align=left;swimlaneLine=0;textShadow=0;labelBorderColor=none;labelBackgroundColor=none;verticalAlign=middle;fontColor=default;fontStyle=0;strokeColor=default;" vertex="1" parent="_dP8tCiRlAQ-4006Mm7O-130">
          <mxGeometry y="240" width="200" height="30" as="geometry" />
        </mxCell>
        <mxCell id="_dP8tCiRlAQ-4006Mm7O-155" value="height" style="shape=partialRectangle;connectable=0;fillColor=none;top=0;left=0;bottom=0;right=0;align=left;spacingLeft=10;overflow=hidden;html=1;cloneable=1;rotatable=1;pointerEvents=1;expand=1;swimlaneFillColor=none;fontStyle=0;fontColor=light-dark(#333333, #ededed);swimlaneLine=0;textShadow=0;labelBorderColor=none;labelBackgroundColor=none;verticalAlign=middle;strokeColor=light-dark(#333333, #ededed);" vertex="1" parent="_dP8tCiRlAQ-4006Mm7O-154">
          <mxGeometry width="120" height="30" as="geometry">
            <mxRectangle width="120" height="30" as="alternateBounds" />
          </mxGeometry>
        </mxCell>
        <mxCell id="_dP8tCiRlAQ-4006Mm7O-156" value="Int" style="shape=partialRectangle;connectable=0;fillColor=none;top=0;left=0;bottom=0;right=0;align=right;spacingLeft=6;overflow=hidden;html=1;cloneable=1;rotatable=1;pointerEvents=1;expand=1;swimlaneFillColor=none;fontStyle=2;fontColor=#808080;spacingRight=10;strokeColor=#808080;swimlaneLine=0;textShadow=0;labelBorderColor=none;labelBackgroundColor=none;verticalAlign=middle;" vertex="1" parent="_dP8tCiRlAQ-4006Mm7O-154">
          <mxGeometry x="120" width="80" height="30" as="geometry">
            <mxRectangle width="80" height="30" as="alternateBounds" />
          </mxGeometry>
        </mxCell>
        <mxCell id="_dP8tCiRlAQ-4006Mm7O-143" style="edgeStyle=orthogonalEdgeStyle;rounded=1;orthogonalLoop=1;jettySize=auto;html=1;exitX=0;exitY=0.5;exitDx=0;exitDy=0;entryX=1;entryY=0.5;entryDx=0;entryDy=0;curved=0;fillColor=#f5f5f5;strokeColor=#666666;startArrow=ERone;startFill=0;endArrow=ERmany;endFill=0;" edge="1" parent="1" source="_dP8tCiRlAQ-4006Mm7O-26" target="_dP8tCiRlAQ-4006Mm7O-134">
          <mxGeometry relative="1" as="geometry">
            <Array as="points">
              <mxPoint x="480" y="205" />
              <mxPoint x="480" y="495" />
            </Array>
          </mxGeometry>
        </mxCell>
        <mxCell id="_dP8tCiRlAQ-4006Mm7O-144" style="edgeStyle=orthogonalEdgeStyle;rounded=1;orthogonalLoop=1;jettySize=auto;html=1;exitX=1;exitY=0.5;exitDx=0;exitDy=0;entryX=1;entryY=0.5;entryDx=0;entryDy=0;curved=0;fillColor=#f5f5f5;strokeColor=#666666;startArrow=ERone;startFill=0;endArrow=ERmany;endFill=0;" edge="1" parent="1" source="_dP8tCiRlAQ-4006Mm7O-2" target="_dP8tCiRlAQ-4006Mm7O-134">
          <mxGeometry relative="1" as="geometry">
            <Array as="points">
              <mxPoint x="480" y="205" />
              <mxPoint x="480" y="495" />
            </Array>
          </mxGeometry>
        </mxCell>
        <mxCell id="_dP8tCiRlAQ-4006Mm7O-157" value="zone_status" style="shape=table;startSize=30;container=1;collapsible=0;childLayout=tableLayout;fixedRows=1;rowLines=0;fontStyle=1;align=center;resizeLast=1;html=1;swimlaneLine=1;rounded=1;shadow=0;columnLines=0;swimlaneHead=1;swimlaneBody=1;horizontal=1;left=1;right=1;connectable=1;allowArrows=1;cloneable=1;rotatable=1;pointerEvents=1;expand=1;swimlaneFillColor=default;arcSize=7;flipV=0;flipH=0;direction=east;fillStyle=solid;verticalAlign=middle;labelBackgroundColor=none;fontSize=15;fillColor=#f5f5f5;strokeColor=#666666;fontColor=#333333;" vertex="1" parent="1">
          <mxGeometry x="520" y="630" width="200" height="150" as="geometry" />
        </mxCell>
        <mxCell id="_dP8tCiRlAQ-4006Mm7O-158" value="" style="shape=tableRow;horizontal=0;startSize=0;swimlaneHead=0;swimlaneBody=0;fillColor=none;collapsible=0;dropTarget=0;points=[[0,0.5],[1,0.5]];portConstraint=eastwest;top=0;left=0;right=0;bottom=0;cloneable=1;rotatable=1;pointerEvents=1;expand=1;swimlaneFillColor=none;align=left;strokeColor=default;swimlaneLine=0;textShadow=0;labelBorderColor=none;labelBackgroundColor=none;verticalAlign=middle;fontColor=default;fontStyle=0" vertex="1" parent="_dP8tCiRlAQ-4006Mm7O-157">
          <mxGeometry y="30" width="200" height="30" as="geometry" />
        </mxCell>
        <mxCell id="_dP8tCiRlAQ-4006Mm7O-159" value="id" style="shape=partialRectangle;connectable=0;fillColor=none;top=0;left=0;bottom=0;right=0;align=left;spacingLeft=10;overflow=hidden;cloneable=1;rotatable=1;pointerEvents=1;expand=1;swimlaneFillColor=none;fontStyle=1;fontColor=light-dark(#333333, #ededed);html=1;strokeColor=light-dark(#333333, #ededed);swimlaneLine=0;textShadow=0;labelBorderColor=none;labelBackgroundColor=none;verticalAlign=middle;" vertex="1" parent="_dP8tCiRlAQ-4006Mm7O-158">
          <mxGeometry width="120" height="30" as="geometry">
            <mxRectangle width="120" height="30" as="alternateBounds" />
          </mxGeometry>
        </mxCell>
        <mxCell id="_dP8tCiRlAQ-4006Mm7O-160" value="UUID" style="shape=partialRectangle;connectable=0;fillColor=none;top=0;left=0;bottom=0;right=0;align=right;spacingLeft=0;overflow=hidden;html=1;cloneable=1;rotatable=1;pointerEvents=1;expand=1;swimlaneFillColor=none;fontStyle=2;fontColor=#808080;spacingRight=10;strokeColor=#808080;swimlaneLine=0;textShadow=0;labelBorderColor=none;labelBackgroundColor=none;verticalAlign=middle;" vertex="1" parent="_dP8tCiRlAQ-4006Mm7O-158">
          <mxGeometry x="120" width="80" height="30" as="geometry">
            <mxRectangle width="80" height="30" as="alternateBounds" />
          </mxGeometry>
        </mxCell>
        <mxCell id="_dP8tCiRlAQ-4006Mm7O-161" value="" style="shape=tableRow;horizontal=0;startSize=0;swimlaneHead=0;swimlaneBody=0;fillColor=none;collapsible=0;dropTarget=0;points=[[0,0.5],[1,0.5]];portConstraint=eastwest;top=0;left=0;right=0;bottom=0;cloneable=1;rotatable=1;pointerEvents=1;expand=1;swimlaneFillColor=none;align=left;swimlaneLine=0;textShadow=0;labelBorderColor=none;labelBackgroundColor=none;verticalAlign=middle;fontColor=default;fontStyle=0;strokeColor=default;" vertex="1" parent="_dP8tCiRlAQ-4006Mm7O-157">
          <mxGeometry y="60" width="200" height="30" as="geometry" />
        </mxCell>
        <mxCell id="_dP8tCiRlAQ-4006Mm7O-162" value="name" style="shape=partialRectangle;connectable=0;fillColor=none;top=0;left=0;bottom=0;right=0;align=left;spacingLeft=10;overflow=hidden;html=1;cloneable=1;rotatable=1;pointerEvents=1;expand=1;swimlaneFillColor=none;fontStyle=0;fontColor=light-dark(#333333, #ededed);swimlaneLine=0;textShadow=0;labelBorderColor=none;labelBackgroundColor=none;verticalAlign=middle;strokeColor=light-dark(#333333, #ededed);" vertex="1" parent="_dP8tCiRlAQ-4006Mm7O-161">
          <mxGeometry width="120" height="30" as="geometry">
            <mxRectangle width="120" height="30" as="alternateBounds" />
          </mxGeometry>
        </mxCell>
        <mxCell id="_dP8tCiRlAQ-4006Mm7O-163" value="Text" style="shape=partialRectangle;connectable=0;fillColor=none;top=0;left=0;bottom=0;right=0;align=right;spacingLeft=0;overflow=hidden;html=1;cloneable=1;rotatable=1;pointerEvents=1;expand=1;swimlaneFillColor=none;fontStyle=2;fontColor=#808080;spacingRight=10;strokeColor=#808080;swimlaneLine=0;textShadow=0;labelBorderColor=none;labelBackgroundColor=none;verticalAlign=middle;" vertex="1" parent="_dP8tCiRlAQ-4006Mm7O-161">
          <mxGeometry x="120" width="80" height="30" as="geometry">
            <mxRectangle width="80" height="30" as="alternateBounds" />
          </mxGeometry>
        </mxCell>
        <mxCell id="_dP8tCiRlAQ-4006Mm7O-164" style="shape=tableRow;horizontal=0;startSize=0;swimlaneHead=0;swimlaneBody=0;fillColor=none;collapsible=0;dropTarget=0;points=[[0,0.5],[1,0.5]];portConstraint=eastwest;top=0;left=0;right=0;bottom=0;cloneable=1;rotatable=1;pointerEvents=1;expand=1;swimlaneFillColor=none;align=left;swimlaneLine=0;textShadow=0;labelBorderColor=none;labelBackgroundColor=none;verticalAlign=middle;fontColor=default;fontStyle=0;strokeColor=default;" vertex="1" parent="_dP8tCiRlAQ-4006Mm7O-157">
          <mxGeometry y="90" width="200" height="30" as="geometry" />
        </mxCell>
        <mxCell id="_dP8tCiRlAQ-4006Mm7O-165" value="display_name" style="shape=partialRectangle;connectable=0;fillColor=none;top=0;left=0;bottom=0;right=0;align=left;spacingLeft=10;overflow=hidden;html=1;cloneable=1;rotatable=1;pointerEvents=1;expand=1;swimlaneFillColor=none;fontStyle=0;fontColor=light-dark(#333333, #ededed);swimlaneLine=0;textShadow=0;labelBorderColor=none;labelBackgroundColor=none;verticalAlign=middle;strokeColor=light-dark(#333333, #ededed);" vertex="1" parent="_dP8tCiRlAQ-4006Mm7O-164">
          <mxGeometry width="120" height="30" as="geometry">
            <mxRectangle width="120" height="30" as="alternateBounds" />
          </mxGeometry>
        </mxCell>
        <mxCell id="_dP8tCiRlAQ-4006Mm7O-166" value="Text" style="shape=partialRectangle;connectable=0;fillColor=none;top=0;left=0;bottom=0;right=0;align=right;spacingLeft=6;overflow=hidden;html=1;cloneable=1;rotatable=1;pointerEvents=1;expand=1;swimlaneFillColor=none;fontStyle=2;fontColor=#808080;spacingRight=10;strokeColor=#808080;swimlaneLine=0;textShadow=0;labelBorderColor=none;labelBackgroundColor=none;verticalAlign=middle;" vertex="1" parent="_dP8tCiRlAQ-4006Mm7O-164">
          <mxGeometry x="120" width="80" height="30" as="geometry">
            <mxRectangle width="80" height="30" as="alternateBounds" />
          </mxGeometry>
        </mxCell>
        <mxCell id="_dP8tCiRlAQ-4006Mm7O-167" value="" style="shape=tableRow;horizontal=0;startSize=0;swimlaneHead=0;swimlaneBody=0;fillColor=none;collapsible=0;dropTarget=0;points=[[0,0.5],[1,0.5]];portConstraint=eastwest;top=0;left=0;right=0;bottom=0;cloneable=1;rotatable=1;pointerEvents=1;expand=1;swimlaneFillColor=none;align=left;swimlaneLine=0;textShadow=0;labelBorderColor=none;labelBackgroundColor=none;verticalAlign=middle;fontColor=default;fontStyle=0;strokeColor=default;" vertex="1" parent="_dP8tCiRlAQ-4006Mm7O-157">
          <mxGeometry y="120" width="200" height="30" as="geometry" />
        </mxCell>
        <mxCell id="_dP8tCiRlAQ-4006Mm7O-168" value="sort" style="shape=partialRectangle;connectable=0;fillColor=none;top=0;left=0;bottom=0;right=0;align=left;spacingLeft=10;overflow=hidden;html=1;cloneable=1;rotatable=1;pointerEvents=1;expand=1;swimlaneFillColor=none;fontStyle=0;fontColor=light-dark(#333333, #ededed);swimlaneLine=0;textShadow=0;labelBorderColor=none;labelBackgroundColor=none;verticalAlign=middle;strokeColor=light-dark(#333333, #ededed);" vertex="1" parent="_dP8tCiRlAQ-4006Mm7O-167">
          <mxGeometry width="120" height="30" as="geometry">
            <mxRectangle width="120" height="30" as="alternateBounds" />
          </mxGeometry>
        </mxCell>
        <mxCell id="_dP8tCiRlAQ-4006Mm7O-169" value="Int" style="shape=partialRectangle;connectable=0;fillColor=none;top=0;left=0;bottom=0;right=0;align=right;spacingLeft=6;overflow=hidden;html=1;cloneable=1;rotatable=1;pointerEvents=1;expand=1;swimlaneFillColor=none;fontStyle=2;fontColor=#808080;spacingRight=10;strokeColor=#808080;swimlaneLine=0;textShadow=0;labelBorderColor=none;labelBackgroundColor=none;verticalAlign=middle;" vertex="1" parent="_dP8tCiRlAQ-4006Mm7O-167">
          <mxGeometry x="120" width="80" height="30" as="geometry">
            <mxRectangle width="80" height="30" as="alternateBounds" />
          </mxGeometry>
        </mxCell>
        <mxCell id="_dP8tCiRlAQ-4006Mm7O-171" style="edgeStyle=orthogonalEdgeStyle;rounded=1;orthogonalLoop=1;jettySize=auto;html=1;exitX=0;exitY=0.5;exitDx=0;exitDy=0;entryX=0;entryY=0.5;entryDx=0;entryDy=0;startArrow=ERone;startFill=0;endArrow=ERone;endFill=0;curved=0;fillColor=#f5f5f5;strokeColor=#666666;" edge="1" parent="1" source="_dP8tCiRlAQ-4006Mm7O-41" target="_dP8tCiRlAQ-4006Mm7O-158">
          <mxGeometry relative="1" as="geometry" />
        </mxCell>
      </root>
    </mxGraphModel>
  </diagram>
</mxfile>
